<svg width="200" height="150" viewBox="0 0 200 150" fill="none" xmlns="http://www.w3.org/2000/svg">
<path d="M122.997 8.47949H77.994C72.4429 8.47949 67.959 12.9795 67.959 18.5305V132.233C67.959 137.784 72.459 142.284 78.01 142.284H122.989C128.54 142.284 133.04 137.784 133.04 132.233V18.5305C133.04 12.9795 128.548 8.47949 122.997 8.47949Z" fill="url(#paint0_linear_810_29639)"/>
<path d="M123.178 9.48486H77.8089C72.9518 9.48486 69.0254 13.4224 69.0254 18.2795V132.296C69.0254 137.153 72.9629 141.091 77.8201 141.091H123.175C128.033 141.091 131.97 137.153 131.97 132.296V18.2795C131.97 13.4224 128.035 9.48486 123.178 9.48486Z" fill="black"/>
<path d="M67.9815 40.2965V35.4595H67.636C67.4973 35.4595 67.3848 35.572 67.3848 35.7107V40.0453C67.3848 40.184 67.4973 40.2965 67.636 40.2965H67.9815Z" fill="#612F82"/>
<path d="M67.9815 40.2965V35.4595H67.636C67.4973 35.4595 67.3848 35.572 67.3848 35.7107V40.0453C67.3848 40.184 67.4973 40.2965 67.636 40.2965H67.9815Z" fill="black" fill-opacity="0.2"/>
<path d="M67.9815 55.0594V45.0083H67.636C67.4973 45.0083 67.3848 45.1208 67.3848 45.2596V54.8081C67.3848 54.9469 67.4973 55.0594 67.636 55.0594H67.9815Z" fill="#3C74B9"/>
<path d="M67.9815 55.0594V45.0083H67.636C67.4973 45.0083 67.3848 45.1208 67.3848 45.2596V54.8081C67.3848 54.9469 67.4973 55.0594 67.636 55.0594H67.9815Z" fill="black" fill-opacity="0.2"/>
<path d="M67.9815 67.8748V57.8237H67.636C67.4973 57.8237 67.3848 57.9362 67.3848 58.075V67.6235C67.3848 67.7623 67.4973 67.8748 67.636 67.8748H67.9815Z" fill="#3C74B9"/>
<path d="M67.9815 67.8748V57.8237H67.636C67.4973 57.8237 67.3848 57.9362 67.3848 58.075V67.6235C67.3848 67.7623 67.4973 67.8748 67.636 67.8748H67.9815Z" fill="black" fill-opacity="0.2"/>
<path d="M133.04 64.4513V48.3696H133.385C133.524 48.3696 133.637 48.4821 133.637 48.6209V64.2C133.637 64.3388 133.524 64.4513 133.385 64.4513H133.04Z" fill="#3C74B9"/>
<path d="M133.04 64.4513V48.3696H133.385C133.524 48.3696 133.637 48.4821 133.637 48.6209V64.2C133.637 64.3388 133.524 64.4513 133.385 64.4513H133.04Z" fill="black" fill-opacity="0.2"/>
<path fill-rule="evenodd" clip-rule="evenodd" d="M95.0508 10.2389C95.0508 9.96133 95.2758 9.73633 95.5533 9.73633H105.447C105.725 9.73633 105.95 9.96133 105.95 10.2389C105.95 10.5164 105.725 10.7414 105.447 10.7414H95.5533C95.2758 10.7414 95.0508 10.5164 95.0508 10.2389Z" fill="white" fill-opacity="0.5"/>
<path fill-rule="evenodd" clip-rule="evenodd" d="M95.0508 10.2388C95.0508 9.96121 95.2758 9.98748 95.5533 9.98748H105.447C105.725 9.98748 105.95 9.96121 105.95 10.2388C105.95 10.5163 105.725 10.7413 105.447 10.7413H95.5533C95.2758 10.7413 95.0508 10.5163 95.0508 10.2388Z" fill="black" fill-opacity="0.5"/>
<path d="M129.775 132.007V18.6559C129.775 14.7701 126.625 11.6201 122.74 11.6201H113.003C111.669 11.6201 114.196 16.6456 108.982 16.6456H92.021C86.7187 16.6456 89.0363 11.6201 87.6236 11.6201H78.0107C74.125 11.6201 70.9766 14.7701 70.9766 18.6559V131.768C70.9766 135.639 74.1037 138.783 77.9747 138.803L122.702 139.042C126.602 139.063 129.775 135.907 129.775 132.007Z" fill="url(#paint1_linear_810_29639)"/>
<path fill-rule="evenodd" clip-rule="evenodd" d="M83.8605 132.357C83.8605 133.818 82.6762 135.002 81.2154 135.002C79.7546 135.002 78.5703 133.818 78.5703 132.357C78.5703 130.896 79.7546 129.712 81.2154 129.712C82.6762 129.712 83.8605 130.896 83.8605 132.357ZM103.155 132.357C103.155 133.818 101.971 135.002 100.51 135.002C99.0496 135.002 97.8653 133.818 97.8653 132.357C97.8653 130.896 99.0496 129.712 100.51 129.712C101.971 129.712 103.155 130.896 103.155 132.357ZM119.803 135.002C121.264 135.002 122.448 133.818 122.448 132.357C122.448 130.896 121.264 129.712 119.803 129.712C118.342 129.712 117.158 130.896 117.158 132.357C117.158 133.818 118.342 135.002 119.803 135.002Z" fill="url(#paint2_linear_810_29639)"/>
<circle cx="91.7372" cy="13.286" r="1.3192" fill="white" fill-opacity="0.2"/>
<circle cx="91.7358" cy="13.2846" r="0.659601" fill="white" fill-opacity="0.2"/>
<path fill-rule="evenodd" clip-rule="evenodd" d="M75.1445 16.1441C75.1445 15.4502 75.707 14.8877 76.4009 14.8877H81.4264C82.1203 14.8877 82.6828 15.4502 82.6828 16.1441C82.6828 16.838 82.1203 17.4005 81.4264 17.4005H76.4009C75.707 17.4005 75.1445 16.838 75.1445 16.1441ZM75.1445 26.1323C75.1445 25.4384 75.707 24.8759 76.4009 24.8759H94.2306C94.9244 24.8759 95.4869 25.4384 95.4869 26.1323C95.4869 26.8262 94.9244 27.3887 94.2306 27.3887H76.4009C75.707 27.3887 75.1445 26.8262 75.1445 26.1323ZM75.1445 30.1527C75.1445 29.4589 75.707 28.8964 76.4009 28.8964H88.7025C89.3964 28.8964 89.9589 29.4589 89.9589 30.1527C89.9589 30.8466 89.3964 31.4091 88.7025 31.4091H76.4009C75.707 31.4091 75.1445 30.8466 75.1445 30.1527ZM75.1445 34.1732C75.1445 33.4793 75.707 32.9168 76.4009 32.9168H84.1795C84.8734 32.9168 85.4359 33.4793 85.4359 34.1732C85.4359 34.867 84.8734 35.4295 84.1795 35.4295H76.4009C75.707 35.4295 75.1445 34.867 75.1445 34.1732Z" fill="url(#paint3_linear_810_29639)"/>
<path d="M100.5 84.9662V50.2639C100.5 49.2956 101.283 48.5093 102.251 48.505L155.514 48.2657C156.489 48.2614 157.281 49.0501 157.281 50.0247V85.7126C157.281 86.6936 156.478 87.4851 155.497 87.4713L102.234 86.725C101.273 86.7115 100.5 85.928 100.5 84.9662Z" fill="#FD9B4D"/>
<path d="M100.5 84.9662V50.2639C100.5 49.2956 101.283 48.5093 102.251 48.505L155.514 48.2657C156.489 48.2614 157.281 49.0501 157.281 50.0247V85.7126C157.281 86.6936 156.478 87.4851 155.497 87.4713L102.234 86.725C101.273 86.7115 100.5 85.928 100.5 84.9662Z" fill="black" fill-opacity="0.4"/>
<path d="M100.5 84.5208V50.0607C100.5 49.2654 101.142 48.6192 101.937 48.6141L154.957 48.2711C155.76 48.2659 156.413 48.9151 156.413 49.7178V85.2752C156.413 86.0823 155.753 86.7332 154.946 86.7217L101.926 85.9673C101.135 85.956 100.5 85.3117 100.5 84.5208Z" fill="url(#paint4_linear_810_29639)"/>
<path d="M156.413 86.7426L100.5 85.9469V80.9121H118.352L123.377 62.5689L128.403 80.9121H131.921L140.967 56.7896L148.254 80.9121H156.413V86.7426Z" fill="url(#paint5_linear_810_29639)"/>
<ellipse cx="124.265" cy="57.8265" rx="2.79603" ry="2.84256" fill="url(#paint6_linear_810_29639)"/>
<path d="M144.035 41.088V29.662C144.035 29.3432 144.293 29.0843 144.612 29.0829L162.149 29.0041C162.47 29.0026 162.731 29.2623 162.731 29.5832V41.3337C162.731 41.6567 162.466 41.9173 162.143 41.9128L144.606 41.667C144.29 41.6626 144.035 41.4046 144.035 41.088Z" fill="#B4B3EE"/>
<path d="M144.035 41.088V29.662C144.035 29.3432 144.293 29.0843 144.612 29.0829L162.149 29.0041C162.47 29.0026 162.731 29.2623 162.731 29.5832V41.3337C162.731 41.6567 162.466 41.9173 162.143 41.9128L144.606 41.667C144.29 41.6626 144.035 41.4046 144.035 41.088Z" fill="black" fill-opacity="0.4"/>
<path d="M144.035 41.4106V29.1215L162.445 29.0024V41.6725L144.035 41.4106Z" fill="url(#paint7_linear_810_29639)"/>
<path fill-rule="evenodd" clip-rule="evenodd" d="M154.429 30.3227C154.754 30.4435 154.92 30.8051 154.799 31.1303L151.533 39.925C151.412 40.2502 151.05 40.4159 150.725 40.2951C150.4 40.1743 150.234 39.8127 150.355 39.4875L153.622 30.6928C153.742 30.3676 154.104 30.2019 154.429 30.3227ZM149.175 32.1607C149.457 32.3634 149.52 32.756 149.318 33.0376L147.345 35.7777L149.285 38.041C149.511 38.3045 149.48 38.701 149.217 38.9268C148.953 39.1526 148.557 39.1221 148.331 38.8587L145.748 35.8452L148.298 32.3034C148.501 32.0219 148.893 31.958 149.175 32.1607ZM156.685 32.1989C156.946 31.9697 157.342 31.995 157.572 32.2555L160.734 35.8493L157.534 38.9043C157.283 39.1438 156.885 39.1346 156.646 38.8836C156.406 38.6326 156.415 38.235 156.666 37.9955L158.994 35.7736L156.628 33.0855C156.399 32.825 156.425 32.4281 156.685 32.1989Z" fill="url(#paint8_linear_810_29639)"/>
<path d="M59.3672 93.7991V44.0247C59.3672 42.3735 60.6951 41.0295 62.3462 41.0096L118.417 40.3337C120.096 40.3135 121.469 41.6693 121.469 43.3488V94.8611C121.469 96.5488 120.083 97.9078 118.396 97.8759L62.3254 96.8138C60.6826 96.7827 59.3672 95.4421 59.3672 93.7991Z" fill="#505BA0"/>
<path d="M59.3672 93.7991V44.0247C59.3672 42.3735 60.6951 41.0295 62.3462 41.0096L118.417 40.3337C120.096 40.3135 121.469 41.6693 121.469 43.3488V94.8611C121.469 96.5488 120.083 97.9078 118.396 97.8759L62.3254 96.8138C60.6826 96.7827 59.3672 95.4421 59.3672 93.7991Z" fill="black" fill-opacity="0.2"/>
<path d="M59.3672 93.3886V43.4676C59.3672 42.0885 60.4788 40.9671 61.8579 40.9549L117.65 40.4645C119.047 40.4522 120.185 41.5807 120.185 42.9771V94.4677C120.185 95.8744 119.03 97.0072 117.624 96.98L61.8314 95.9009C60.4628 95.8744 59.3672 94.7574 59.3672 93.3886Z" fill="url(#paint9_linear_810_29639)"/>
<path fill-rule="evenodd" clip-rule="evenodd" d="M109.763 59.158H71.2187C69.7776 59.158 68.6055 57.9859 68.6055 56.5448V51.5297C68.6055 50.0886 69.7776 48.9165 71.2187 48.9165H109.763C111.205 48.9165 112.377 50.0886 112.377 51.5297V56.5448C112.377 57.9859 111.205 59.158 109.763 59.158ZM110.42 73.7127H71.8757C70.4346 73.7127 69.2625 72.5406 69.2625 71.0995V66.0844C69.2625 64.6433 70.4346 63.4712 71.8757 63.4712H110.42C111.862 63.4712 113.034 64.6433 113.034 66.0844V71.0995C113.034 72.5406 111.862 73.7127 110.42 73.7127ZM72.5306 88.2685H111.075C112.516 88.2685 113.689 87.0964 113.689 85.6553V80.6403C113.689 79.1991 112.516 78.027 111.075 78.027H72.5306C71.0895 78.027 69.9174 79.1991 69.9174 80.6403V85.6553C69.9174 87.0964 71.0895 88.2685 72.5306 88.2685Z" fill="url(#paint10_linear_810_29639)"/>
<path d="M109.935 58.4087H71.3714C69.8726 58.4087 68.6621 57.1982 68.6621 55.6994V50.6844C68.6621 49.1856 69.8726 47.9751 71.3714 47.9751H109.916C111.415 47.9751 112.625 49.1856 112.625 50.6844V55.6994C112.625 57.1982 111.415 58.4087 109.935 58.4087ZM71.3714 48.1865C69.9879 48.1865 68.8543 49.3201 68.8543 50.7036V55.7186C68.8543 57.1021 69.9879 58.2358 71.3714 58.2358H109.916C111.3 58.2358 112.433 57.1021 112.433 55.7186V50.7036C112.433 49.3201 111.3 48.1865 109.916 48.1865H71.3714Z" fill="white"/>
<path d="M110.59 72.9634H72.0257C70.5269 72.9634 69.3164 71.7529 69.3164 70.2541V65.2391C69.3164 63.7403 70.5269 62.5298 72.0257 62.5298H110.57C112.069 62.5298 113.28 63.7403 113.28 65.2391V70.2541C113.28 71.7529 112.069 72.9634 110.59 72.9634ZM72.0257 62.7411C70.6422 62.7411 69.5086 63.8748 69.5086 65.2583V70.2733C69.5086 71.6568 70.6422 72.7905 72.0257 72.7905H110.57C111.954 72.7905 113.088 71.6568 113.088 70.2733V65.2583C113.088 63.8748 111.954 62.7411 110.57 62.7411H72.0257Z" fill="white"/>
<path d="M111.248 87.5191H72.6839C71.1851 87.5191 69.9746 86.3085 69.9746 84.8098V79.7947C69.9746 78.296 71.1851 77.0854 72.6839 77.0854H111.229C112.727 77.0854 113.938 78.296 113.938 79.7947V84.8098C113.938 86.3085 112.727 87.5191 111.248 87.5191ZM72.6839 77.2968C71.3004 77.2968 70.1668 78.4305 70.1668 79.8139V84.829C70.1668 86.2125 71.3004 87.3461 72.6839 87.3461H111.229C112.612 87.3461 113.746 86.2125 113.746 84.829V79.8139C113.746 78.4305 112.612 77.2968 111.229 77.2968H72.6839Z" fill="white"/>
<path opacity="0.19" d="M73.7916 56.6208C75.2136 56.6208 76.3663 55.468 76.3663 54.046C76.3663 52.624 75.2136 51.4712 73.7916 51.4712C72.3696 51.4712 71.2168 52.624 71.2168 54.046C71.2168 55.468 72.3696 56.6208 73.7916 56.6208Z" fill="#00376E"/>
<path opacity="0.19" d="M74.4498 71.1764C75.8718 71.1764 77.0246 70.0236 77.0246 68.6016C77.0246 67.1796 75.8718 66.0269 74.4498 66.0269C73.0278 66.0269 71.875 67.1796 71.875 68.6016C71.875 70.0236 73.0278 71.1764 74.4498 71.1764Z" fill="#00376E"/>
<path opacity="0.19" d="M75.1041 85.7311C76.5261 85.7311 77.6788 84.5783 77.6788 83.1563C77.6788 81.7343 76.5261 80.5815 75.1041 80.5815C73.6821 80.5815 72.5293 81.7343 72.5293 83.1563C72.5293 84.5783 73.6821 85.7311 75.1041 85.7311Z" fill="#00376E"/>
<path d="M108.687 56.4092H79.6534C78.8463 56.4092 78.1738 55.7559 78.1738 54.9297V52.6431C78.1738 51.8361 78.8271 51.1636 79.6534 51.1636H108.687C109.494 51.1636 110.166 51.8169 110.166 52.6431V54.9297C110.147 55.7559 109.494 56.4092 108.687 56.4092Z" fill="white" fill-opacity="0.2"/>
<path d="M109.341 70.9658H80.3077C79.5006 70.9658 78.8281 70.3125 78.8281 69.4863V67.1998C78.8281 66.3927 79.4814 65.7202 80.3077 65.7202H109.341C110.148 65.7202 110.821 66.3735 110.821 67.1998V69.4863C110.801 70.3125 110.148 70.9658 109.341 70.9658Z" fill="white" fill-opacity="0.2"/>
<path d="M109.997 85.5215H80.9639C80.1569 85.5215 79.4844 84.8682 79.4844 84.042V81.7554C79.4844 80.9484 80.1377 80.2759 80.9639 80.2759H109.997C110.804 80.2759 111.477 80.9292 111.477 81.7554V84.042C111.458 84.8682 110.804 85.5215 109.997 85.5215Z" fill="white" fill-opacity="0.2"/>
<path d="M27.332 87.9698V52.5561C27.332 51.4533 28.2205 50.5564 29.3232 50.5459L81.1542 50.0549C82.2718 50.0443 83.1835 50.9473 83.1835 52.065V88.7414C83.1835 89.8634 82.2651 90.7681 81.1433 90.7514L29.3123 89.9797C28.2139 89.9634 27.332 89.0683 27.332 87.9698Z" fill="#81A1DD"/>
<path d="M27.332 87.9698V52.5561C27.332 51.4533 28.2205 50.5564 29.3232 50.5459L81.1542 50.0549C82.2718 50.0443 83.1835 50.9473 83.1835 52.065V88.7414C83.1835 89.8634 82.2651 90.7681 81.1433 90.7514L29.3123 89.9797C28.2139 89.9634 27.332 89.0683 27.332 87.9698Z" fill="black" fill-opacity="0.35"/>
<path d="M27.332 87.5545V52.2886C27.332 51.3082 28.1232 50.5116 29.1035 50.5049L80.5336 50.1514C81.5236 50.1446 82.3297 50.9452 82.3297 51.9351V88.3321C82.3297 89.3278 81.5145 90.1308 80.5189 90.1157L29.0888 89.3381C28.1143 89.3234 27.332 88.5292 27.332 87.5545Z" fill="url(#paint11_linear_810_29639)"/>
<path d="M67.4349 79.873H42.1836V81.263H67.4349V79.873Z" fill="url(#paint12_linear_810_29639)"/>
<path d="M70.9323 78.6788H39.0184C37.545 78.6788 36.3496 77.4835 36.3496 76.0101C36.3496 74.5367 37.545 73.3413 39.0184 73.3413H70.9323C72.4057 73.3413 73.6011 74.5367 73.6011 76.0101C73.6011 77.4835 72.4057 78.6788 70.9323 78.6788ZM38.9906 73.6193C37.6562 73.6193 36.5998 74.7035 36.5998 76.0101C36.5998 77.3167 37.684 78.4008 38.9906 78.4008H70.9045C72.2389 78.4008 73.2953 77.3167 73.2953 76.0101C73.2953 74.7035 72.2111 73.6193 70.9045 73.6193H38.9906Z" fill="url(#paint13_linear_810_29639)"/>
<circle cx="55.2579" cy="60.671" r="6.8302" fill="url(#paint14_linear_810_29639)"/>
<path fill-rule="evenodd" clip-rule="evenodd" d="M55.0243 60.3627C56.4271 60.337 57.5563 59.1918 57.5563 57.7829C57.5563 56.3578 56.4011 55.2026 54.9761 55.2026C53.551 55.2026 52.3958 56.3578 52.3958 57.7829C52.3958 59.1919 53.5253 60.3372 54.9282 60.3627C52.4074 60.3886 50.373 62.4391 50.373 64.966H59.5803C59.5803 62.4388 57.5455 60.3882 55.0243 60.3627Z" fill="url(#paint15_linear_810_29639)"/>
<path fill-rule="evenodd" clip-rule="evenodd" d="M39.9536 57.9197H32.1641V57.6685H39.9536V57.9197ZM39.9536 59.9299H32.1641V59.6787H39.9536V59.9299ZM39.9536 61.9402H32.1641V61.6889H39.9536V61.9402Z" fill="url(#paint16_linear_810_29639)"/>
<circle cx="120.184" cy="20.5051" r="4.36013" fill="url(#paint17_linear_810_29639)"/>
<circle cx="121.468" cy="22.6077" r="4.36013" fill="url(#paint18_linear_810_29639)"/>
<path d="M20.1717 79.9539C20.1717 79.9539 20.0963 75.0162 21.3542 74.6407C22.6121 74.2652 22.8001 75.8611 23.0629 76.7247C23.3179 77.5625 23.476 78.9777 23.476 79.5033C23.476 79.7638 23.8512 81.4935 23.8512 83.9717C23.8512 85.7365 23.376 86.5277 23.476 87.614C23.476 87.614 24.3769 89.7919 24.8275 91.4065C25.2781 93.0211 26.1045 96.4381 26.1045 96.4381L24.1143 97.0764C24.1143 97.0764 22.9691 94.9168 22.1242 92.7583C21.3153 90.6917 20.7373 89.3407 20.4343 87.8768C20.1313 86.413 20.1717 79.9539 20.1717 79.9539Z" fill="#CEA588"/>
<path d="M20.035 79.9539C20.035 79.9539 20.0978 75.0162 21.3558 74.6407C22.6137 74.2652 22.8017 75.8611 23.0645 76.7247C23.3195 77.5625 23.4775 78.9777 23.4775 79.5033C23.4775 79.7087 23.7108 80.8275 23.8095 82.5065H22.1258H20.0419C20.0279 81.0843 20.035 79.9539 20.035 79.9539Z" fill="#8D98D4"/>
<path d="M19.9104 79.8724C19.9243 79.2989 20.0681 74.9913 21.242 74.6409C22.5 74.2654 22.8942 75.8237 23.1571 76.6873C23.412 77.5251 23.6076 78.9778 23.6076 79.5035C23.6076 79.7089 23.8399 82.2805 23.8082 82.5066C23.7765 82.7327 22.988 82.8078 22.237 82.8078C21.486 82.8078 20.322 82.8266 20.0406 82.5066C19.7873 82.2187 19.8834 80.3665 19.9051 79.9987C19.9076 79.9559 19.9093 79.9153 19.9104 79.8724Z" fill="url(#paint19_linear_810_29639)"/>
<path d="M19.909 79.9353C19.909 79.9353 19.9841 75.0164 21.242 74.6409C22.5 74.2654 22.8942 75.8237 23.1571 76.6873C23.412 77.5251 23.6076 78.9778 23.6076 79.5035C23.6076 79.7089 23.8399 82.2805 23.8082 82.5066C23.7765 82.7327 22.988 82.8078 22.237 82.8078C21.486 82.8078 20.322 82.8266 20.0406 82.5066C19.7591 82.1867 19.909 79.9353 19.909 79.9353Z" fill="#4B5DFF" fill-opacity="0.3"/>
<path d="M27.1941 69.0824C27.2157 68.4435 27.1378 68.031 26.8749 66.9609C29.954 66.0597 33.5306 69.6832 33.5306 69.6832C33.2021 69.7489 32.8829 69.871 32.498 70.2558C32.1131 70.6407 32.1805 71.2974 32.2257 71.4668C32.4134 72.1704 33.1931 72.4574 34.3572 72.8329C35.2884 73.1333 36.271 73.3113 36.271 73.3113C36.271 73.3113 35.729 73.7042 35.6427 74.865C35.4362 77.6437 36.4535 79.9725 36.7164 80.4141C36.7164 80.4141 36.1449 81.821 35.8867 84.7029C35.6976 86.814 35.4613 87.7492 35.4613 89.0634C35.4613 90.3776 36.2435 93.527 36.2435 93.527C36.2435 93.527 33.2771 94.2968 30.6486 94.2968H24.6032C24.9036 92.4193 25.1172 90.9074 24.8284 89.0634C24.5397 87.2194 23.7583 84.4964 23.2702 83.1446C22.782 81.7929 21.8602 80.5178 21.2237 78.6012C20.7712 77.2383 20.8857 76.3196 20.8481 75.4095C20.8106 74.4994 23.0263 73.7898 24.1152 73.3113C25.204 72.8329 26.7624 72.5182 27.0814 71.0162C27.2066 70.4905 27.164 69.9713 27.1941 69.0824Z" fill="#CBA388"/>
<path d="M24.7163 102.033C23.9278 100.418 23.9277 99.1414 23.9277 97.6395C23.9277 96.1375 24.7162 94.0723 24.7162 94.0723H27.6828H32.1512C32.2641 95.2223 32.7895 97.3391 33.0147 99.5169C33.3151 102.421 33.3151 103.047 33.3151 105.713C33.3151 108.379 32.7895 112.359 32.7895 113.41C32.7895 114.462 33.0147 115.558 33.0147 116.339C33.0147 117.315 32.7895 120.019 33.0147 123.06C33.24 126.102 33.9082 131.342 34.1127 131.714C34.3171 132.086 34.9361 131.918 35.568 132.222C36.2 132.526 36.3753 132.548 36.7508 132.701C37.1263 132.855 38.0838 132.701 38.2903 133.133C38.4969 133.565 37.6067 133.836 37.1263 134.034C36.6459 134.233 35.0799 134.504 34.4415 134.654C33.9309 134.774 31.8352 135.536 31.1015 135.18C30.3678 134.824 30.5811 133.987 30.6867 133.649C30.7923 133.311 31.216 132.848 31.1015 132.222C31.0394 131.883 30.6486 130.313 29.9357 128.317C29.3359 126.638 28.3661 123.513 28.246 122.535C27.9831 120.394 28.246 117.693 28.246 116.339C28.246 115.213 27.6143 113.7 27.082 111.57C26.5496 109.441 26.6395 106.416 26.4435 105.412C26.1431 103.873 25.6759 103.998 24.7163 102.033Z" fill="#D4AA8D"/>
<path d="M24.4549 102.108C23.6664 100.493 23.779 99.3667 23.779 97.8647C23.779 97.0438 24.0594 95.9872 24.3138 95.1979C24.5358 94.5088 25.1905 94.0723 25.9144 94.0723H27.6843H30.7266C31.5604 94.0723 32.2974 94.6461 32.532 95.4463C32.8442 96.5109 33.2221 97.834 33.3729 99.2916C33.6733 102.195 33.6545 103.047 33.6545 105.713C33.6545 108.379 33.3729 112.312 33.3729 113.364V116.743C33.3729 117.719 33.1476 120.235 33.3729 123.277C33.5982 126.318 34.5835 131.198 34.4806 131.669C34.3776 132.14 33.3879 132.322 32.7721 132.532C32.1563 132.743 30.6881 132.739 30.5191 132.382C30.3502 132.026 30.1061 130.843 29.5241 128.834C28.9243 127.155 28.3675 123.663 28.2474 122.685C27.9846 120.545 28.2474 118.097 28.2474 116.743C28.2474 115.616 27.4655 113.737 26.9332 111.608C26.4008 109.479 26.4157 106.717 26.2197 105.713C25.9193 104.173 25.4146 104.073 24.4549 102.108Z" fill="url(#paint20_linear_810_29639)"/>
<path d="M24.4549 102.108C23.6664 100.493 23.779 99.3667 23.779 97.8647C23.779 96.3628 24.7177 94.0723 24.7177 94.0723H27.6843H32.1526C32.4154 95.2363 33.1476 97.1138 33.3729 99.2916C33.6733 102.195 33.6545 103.047 33.6545 105.713C33.6545 108.379 33.3729 112.312 33.3729 113.364V116.743C33.3729 117.719 33.1476 120.235 33.3729 123.277C33.5982 126.318 34.5835 131.198 34.4806 131.669C34.3776 132.14 33.3879 132.322 32.7721 132.532C32.1563 132.743 30.6881 132.739 30.5191 132.382C30.3502 132.026 30.1061 130.843 29.5241 128.834C28.9243 127.155 28.3675 123.663 28.2474 122.685C27.9846 120.545 28.2474 118.097 28.2474 116.743C28.2474 115.616 27.4655 113.737 26.9332 111.608C26.4008 109.479 26.4157 106.717 26.2197 105.713C25.9193 104.173 25.4146 104.073 24.4549 102.108Z" fill="black" fill-opacity="0.5"/>
<path d="M37.4839 106.767C37.6289 105.337 37.406 99.8922 37.068 97.827C36.9688 97.2202 36.8449 96.3945 36.7327 95.6276C36.5686 94.5053 36.242 93.5088 36.242 93.5088C36.242 93.5088 32.9564 94.072 30.8536 94.072H26.5917C26.4665 95.1985 25.9534 97.5266 26.1787 100.117C26.404 102.708 28.5922 103.626 29.1076 104.774C29.623 105.922 29.5205 109.527 29.5205 110.669V117.278C29.5205 118.704 27.5679 122.215 26.8357 124.224C26.2359 125.87 26.1786 129.106 25.728 130.608C25.5387 131.239 24.564 134.193 24.2636 135.478C24.0821 135.989 23.7943 136.503 23.6253 136.916C23.4563 137.329 23.2311 138.061 23.6253 138.474C24.0195 138.887 27.1175 138.587 27.7746 138.587H32.0737C33.9887 138.587 34.5521 138.23 35.0966 137.873C35.5322 137.588 35.4907 136.916 34.8148 136.916C34.8148 136.916 33.3504 137.01 32.731 136.822C32.1116 136.634 31.388 136.192 30.1775 135.677C29.3683 135.332 28.4314 135.17 28.469 134.531C28.5065 133.893 28.6567 133.255 28.9946 132.354C29.3326 131.452 30.3278 129.237 30.9286 127.754C31.5294 126.271 32.3442 124.715 33.5007 122.121C34.3629 120.188 35.4441 118.355 35.5472 118.066C35.8288 117.278 36.1299 114.627 36.4296 113.128C36.8126 111.213 37.3389 108.196 37.4839 106.767Z" fill="#D4AA8D"/>
<path d="M37.633 106.501C37.778 105.072 37.558 99.8922 37.22 97.827C37.1207 97.2202 36.9968 96.3945 36.8847 95.6276C36.7206 94.5053 36.3939 93.5088 36.3939 93.5088C36.3939 93.5088 32.9582 94.072 30.8554 94.072H26.5934C26.4683 95.1985 25.805 97.489 26.0303 100.08C26.2556 102.671 28.481 103.776 28.9964 104.924C29.5118 106.072 29.1094 109.377 29.1094 110.519V117.315C29.1094 118.742 27.2882 121.727 26.556 123.736C25.9562 125.382 25.5797 128.392 25.1292 130.232C24.9887 130.806 23.9463 134.599 24.0779 135.301C24.2094 136.003 28.6059 135.402 28.8277 135.207C29.0495 135.012 28.8619 134.663 29.0156 133.893C29.1693 133.123 29.2032 132.504 29.5411 131.603C29.8791 130.701 30.3296 129.237 30.9304 127.754C31.5312 126.271 32.4962 124.715 33.6527 122.121C34.5149 120.188 35.2486 119.305 35.6804 118.141C36.1122 116.977 36.357 114.608 36.6567 113.11C37.0397 111.195 37.488 107.93 37.633 106.501Z" fill="#612F82"/>
<path d="M37.633 106.501C37.778 105.072 37.558 99.8922 37.22 97.827C37.1207 97.2202 36.9968 96.3945 36.8847 95.6276C36.8525 95.4074 36.814 95.1919 36.773 94.9879C36.5996 94.1259 35.7547 93.6132 34.8831 93.7295C33.7002 93.8874 32.0593 94.072 30.8554 94.072H28.19C27.2811 94.072 26.4849 94.7504 26.3255 95.6453C26.1129 96.8384 25.8838 98.3957 26.0303 100.08C26.2556 102.671 28.481 103.776 28.9964 104.924C29.5118 106.072 29.1094 109.377 29.1094 110.519V117.315C29.1094 118.742 27.2882 121.727 26.556 123.736C25.9562 125.382 25.5797 128.392 25.1292 130.232C24.9887 130.806 23.9463 134.599 24.0779 135.301C24.2094 136.003 28.6059 135.402 28.8277 135.207C29.0495 135.012 28.8619 134.663 29.0156 133.893C29.1693 133.123 29.2032 132.504 29.5411 131.603C29.8791 130.701 30.3296 129.237 30.9304 127.754C31.5312 126.271 32.4962 124.715 33.6527 122.121C34.5149 120.188 35.2486 119.305 35.6804 118.141C36.1122 116.977 36.357 114.608 36.6567 113.11C37.0397 111.195 37.488 107.93 37.633 106.501Z" fill="url(#paint21_linear_810_29639)"/>
<path d="M28.743 135.009C29.0528 135.159 29.5597 135.309 30.4421 135.694C31.3999 136.112 31.8784 136.436 32.864 136.718C33.6902 136.954 33.7934 136.84 34.4787 136.84C35.1639 136.84 35.6802 136.924 35.7741 137.45C35.868 137.975 35.7346 138.289 35.577 138.604C35.4193 138.92 34.8917 139.393 33.5681 139.628C32.2445 139.862 30.7707 139.628 29.7099 139.628C28.6492 139.628 27.2129 139.862 26.1427 139.862C24.9412 139.862 23.8581 139.887 23.702 139.75C23.3829 139.468 23.3735 139.11 23.3735 138.792C23.3735 138.442 23.289 137.741 23.3735 137.206C23.4579 136.671 24.0212 135.375 24.3122 135.375C24.6032 135.375 24.6971 135.629 24.8003 135.826C24.9036 136.023 25.2228 136.511 25.8517 136.614C26.4807 136.718 27.0437 136.474 27.4476 136.258C27.8324 136.051 28.5046 134.893 28.743 135.009Z" fill="#612F82"/>
<path d="M27.4476 136.259C27.0437 136.475 26.4807 136.719 25.8517 136.615C25.2228 136.512 24.9036 136.024 24.8003 135.827C24.6971 135.63 24.6032 135.376 24.3122 135.376C24.0212 135.376 23.4579 136.672 23.3735 137.207C23.289 137.742 23.3735 138.443 23.3735 138.793C23.6739 138.831 26.6684 138.793 27.8324 138.85C28.3587 138.875 29.6738 138.855 30.9498 138.831C30.8646 138.211 30.9498 136.841 30.3107 136.259C29.6717 135.677 28.9589 135.527 28.3488 135.264C28.0668 135.592 27.6784 136.135 27.4476 136.259Z" fill="black" fill-opacity="0.09"/>
<path d="M35.5746 138.605C35.7322 138.29 35.8656 137.976 35.7717 137.451C35.7717 137.451 34.7391 138.793 33.4906 138.793C32.2421 138.793 28.7722 138.895 27.83 138.849C26.666 138.793 23.6715 138.831 23.3711 138.793C23.3711 139.111 23.3804 139.469 23.6996 139.751C23.8557 139.888 24.9387 139.863 26.1403 139.863C27.2105 139.863 28.2149 139.629 29.7075 139.629C31.2001 139.629 32.2421 139.863 33.5657 139.629C34.8893 139.394 35.4169 138.921 35.5746 138.605Z" fill="black" fill-opacity="0.2"/>
<path d="M20.8489 75.4097C20.8488 74.3208 22.9893 73.6728 24.0781 73.1943C24.8681 72.8472 26.4055 72.0127 26.5748 72.0127C26.7441 72.0127 27.4012 72.4997 29.2036 72.4997C31.0059 72.4997 32.3765 72.0127 32.6393 72.0127C32.9022 72.0127 33.5981 72.4462 34.4041 72.7062C35.3354 73.0066 36.2816 73.1005 36.2717 73.3116C36.2618 73.5227 35.7297 73.7044 35.6434 74.8653C35.4884 76.9508 36.0737 78.8192 36.4865 79.8084C36.6735 80.2564 36.7976 80.7362 36.757 81.22C36.694 81.9688 36.5577 83.2511 36.2717 84.9097C35.9116 86.9984 36.0001 88.2516 36.0001 89.5658C36.0001 90.8801 36.1879 92.382 36.5446 93.6963C36.9013 95.0105 37.9339 98.6715 37.5209 99.5915C37.1078 100.511 33.241 101.238 29.6355 101.206C26.0301 101.174 24.2096 101.356 23.7403 100.868C23.2709 100.38 23.5525 98.9344 23.7403 97.4136C23.9186 95.9691 24.0657 95.2858 24.3786 93.9591C24.6039 92.2694 24.9356 91.1814 24.6039 89.0637C24.2723 86.9459 23.6652 84.6844 23.177 83.3326C22.6889 81.9809 21.8232 80.6307 21.1868 78.7141C20.7342 77.3512 20.8489 76.4987 20.8489 75.4097Z" fill="url(#paint22_linear_810_29639)"/>
<path d="M20.8489 75.4097C20.8488 74.3208 22.9893 73.6728 24.0781 73.1943C24.8681 72.8472 26.4055 72.0127 26.5748 72.0127C26.7441 72.0127 27.4012 72.4997 29.2036 72.4997C31.0059 72.4997 32.3765 72.0127 32.6393 72.0127C32.9022 72.0127 33.5981 72.4462 34.4041 72.7062C35.3354 73.0066 36.2816 73.1005 36.2717 73.3116C36.2618 73.5227 35.7297 73.7044 35.6434 74.8653C35.4369 77.6439 36.5446 80.0372 36.8074 80.4789C36.8074 80.4789 36.7411 82.1874 36.2717 84.9097C35.9116 86.9984 36.0001 88.2516 36.0001 89.5658C36.0001 90.8801 36.1879 92.382 36.5446 93.6963C36.9013 95.0105 37.9339 98.6715 37.5209 99.5915C37.1078 100.511 33.241 101.238 29.6355 101.206C26.0301 101.174 24.2096 101.356 23.7403 100.868C23.2709 100.38 23.5525 98.9344 23.7403 97.4136C23.9186 95.9691 24.0657 95.2858 24.3786 93.9591C24.6039 92.2694 24.9356 91.1814 24.6039 89.0637C24.2723 86.9459 23.6652 84.6844 23.177 83.3326C22.6889 81.9809 21.8232 80.6307 21.1868 78.7141C20.7342 77.3512 20.8489 76.4987 20.8489 75.4097Z" fill="#6B7AFF" fill-opacity="0.3"/>
<path d="M29.2042 72.4997C27.4018 72.4997 26.7447 72.0127 26.5754 72.0127C26.4824 72.0127 25.9763 72.2646 25.4082 72.5492C25.9186 72.9127 26.8949 73.6074 29.3544 73.6074C31.8139 73.6074 33.0905 73.0817 34.1248 72.608C33.4406 72.35 32.8718 72.0127 32.6399 72.0127C32.3771 72.0127 31.0065 72.4997 29.2042 72.4997Z" fill="black" fill-opacity="0.1"/>
<path d="M43.9041 75.7853C43.0931 75.9055 37.2573 73.3446 36.3566 73.3446C35.4559 73.3446 35.4179 75.1845 35.418 76.2359C35.418 78.6954 36.4226 80.142 36.7979 80.5165C36.9012 80.2818 36.9351 80.0277 37.7836 80.1974C39.2531 80.4913 41.1552 80.4414 41.9516 80.4414C43.2282 80.4414 45.4812 79.6153 46.4574 79.0146C46.9824 78.6914 48.0159 76.5363 48.3163 75.4849C48.7025 74.1331 49.1236 72.8001 49.2551 72.312C49.3865 71.8239 49.743 70.566 50.4752 70.0778C51.2074 69.5897 51.9114 68.5805 52.0194 68.4116C52.1273 68.2426 52.3505 67.8895 52.1839 67.6277C52.0173 67.3659 51.8692 67.3883 51.8692 67.3883C51.8692 67.3883 52.0382 67.0175 51.7709 66.7735C51.5035 66.5294 51.2543 66.7172 51.2543 66.7172C51.2543 66.7172 51.4092 66.3933 51.1088 66.2149C50.8084 66.0366 50.4752 66.2478 50.4752 66.2478C50.7255 66.01 51.0464 65.5376 51.2543 65.3842C51.4705 65.2246 51.6817 65.0556 51.9398 64.8585C52.198 64.6613 52.24 64.4079 52.1273 64.2577C52.0147 64.1075 51.63 64.2577 51.63 64.2577L50.6913 64.8585C50.6913 64.8585 50.006 65.3842 49.7901 65.6001C49.5742 65.816 48.6269 66.8024 48.4475 67.2241C48.2681 67.6458 48.241 68.7918 48.072 69.1391C47.9031 69.4864 46.4424 72.0229 46.082 72.5936C45.6432 73.2883 44.7152 75.6652 43.9041 75.7853Z" fill="#D4AA8D"/>
<path d="M35.3711 76.2738C35.3711 77.7369 35.7266 78.8415 36.0937 79.5753C36.3931 80.1738 37.1837 80.2167 37.84 80.3479C39.3094 80.6418 41.4259 80.9112 41.9141 80.5544C42.4022 80.1977 42.0643 75.7481 41.7502 75.1932C41.4361 74.6382 36.9576 73.1572 36.2443 73.1572C35.5311 73.1572 35.3711 75.2224 35.3711 76.2738Z" fill="url(#paint23_linear_810_29639)"/>
<path d="M35.3711 76.2738C35.3712 78.7333 36.3758 80.1799 36.751 80.5544C36.9951 80.3479 36.9915 80.1782 37.84 80.3479C39.3094 80.6418 41.4259 80.9112 41.9141 80.5544C42.4022 80.1977 42.0643 75.7481 41.7502 75.1932C41.4361 74.6382 36.9576 73.1572 36.2443 73.1572C35.5311 73.1572 35.3711 75.2224 35.3711 76.2738Z" fill="#8A96FF" fill-opacity="0.3"/>
<path d="M30.3466 59.3384C27.8166 59.3384 25.7656 61.3894 25.7656 63.9194C25.7656 64.9078 26.0787 65.8232 26.611 66.5716L29.8585 67.2707C29.8585 67.2707 30.5156 67.5617 31.1727 68.0874C31.8298 68.6131 31.9332 68.8384 32.2429 69.12C32.9564 69.6081 33.1347 69.6269 33.5196 69.702C33.9044 69.7771 34.6733 69.9029 35.0215 69.4579C35.3698 69.0129 35.5097 66.9233 35.4721 66.1348C35.4346 65.3463 35.1279 64.5828 34.9277 63.9194C34.9277 61.3894 32.8767 59.3384 30.3466 59.3384Z" fill="#E1B597"/>
<path d="M34.9755 69.5129C34.6093 69.894 33.8885 69.7755 33.5198 69.7036C33.135 69.6285 32.9567 69.6097 32.2432 69.1216C31.9335 68.84 31.8301 68.6147 31.173 68.089C30.5159 67.5633 29.9808 67.3192 29.8588 67.2723C29.7368 67.2253 26.6113 66.5732 26.6113 66.5732C27.7846 66.678 29.7367 66.6903 30.0277 66.8217C30.3187 66.9531 30.76 67.2441 31.173 67.6008C31.586 67.9575 31.9615 68.5583 32.4497 68.9338C32.9378 69.3093 33.2488 69.6473 34.1206 69.6473C34.6858 69.6473 34.8969 69.5684 34.9755 69.5129C34.9917 69.4961 35.0071 69.4783 35.0218 69.4595C35.0218 69.4595 35.0182 69.4827 34.9755 69.5129Z" fill="black" fill-opacity="0.03"/>
<path d="M31.0531 64.7085C31.8041 64.7085 31.7573 65.2342 31.7573 65.6285C31.7573 66.0227 31.9826 65.8725 31.9826 66.1917C31.9826 66.5109 31.8433 66.5691 31.9075 66.9802C31.9544 67.2806 32.0389 67.5247 31.7573 67.6186C31.4757 67.7124 31.334 67.2847 30.9124 66.9802C30.5745 66.7362 30.2866 66.4329 30.2269 65.8162C30.1672 65.1995 30.5458 64.7085 31.0531 64.7085Z" fill="#E8BEA1"/>
<path d="M31.4832 66.2105C31.545 66.337 31.6709 66.4076 31.7366 66.5391C31.8023 66.6705 31.801 66.809 31.5812 66.8336C31.3615 66.8583 31.2438 66.761 31.1922 66.6142C31.1657 66.5391 31.2438 66.3409 31.2438 66.2105C31.2438 66.0081 31.0608 65.8118 31.0467 65.5958C31.0326 65.3799 31.1491 65.3602 31.2438 65.4081C31.3136 65.4434 31.3684 65.6481 31.3878 65.7143C31.3872 65.6844 31.3897 65.6803 31.3941 65.7179C31.3972 65.744 31.3948 65.738 31.3878 65.7143C31.3896 65.7959 31.4142 66.0693 31.4832 66.2105Z" fill="black" fill-opacity="0.1"/>
<path d="M30.4693 65.4971C30.4969 65.1867 30.8294 65.0616 30.8294 65.1381C30.8293 65.2146 30.7315 65.4427 30.709 65.5958C30.6758 65.823 30.7646 66.1276 30.8294 66.2848C30.8941 66.442 31.0937 66.7069 31.0467 66.761C30.9998 66.8151 30.8528 66.6608 30.7089 66.4466C30.5649 66.2323 30.4318 65.9195 30.4693 65.4971Z" fill="black" fill-opacity="0.1"/>
<path d="M33.9531 62.4929C34.0644 62.2145 34.4663 61.7857 34.7604 61.404C35.0545 61.0222 35.1941 60.7675 35.4644 60.1367C35.8024 59.3482 35.4767 59.105 35.0889 59.0102C34.6665 58.9069 34.2722 59.2261 33.7372 59.3763C32.9745 59.5904 31.4936 59.1322 30.6301 58.8131C29.7667 58.4939 28.039 58.9539 27.4757 59.3763C26.9125 59.7987 25.4858 60.0147 25.3732 61.404C25.2605 62.7933 25.7861 64.8961 25.8988 65.5156C26.0114 66.1352 27.1097 68.6322 27.2223 68.6698C27.335 68.7073 28.1798 68.6041 28.5272 68.4914C28.9919 68.3407 29.1843 68.2849 29.4659 68.0314C29.6749 67.8433 29.879 67.487 29.973 67.1115C30.0671 66.736 29.9914 66.398 30.0479 65.9099C30.1045 65.4218 30.1191 64.9751 30.6301 64.7646C31.2281 64.5183 31.5654 64.7666 31.8785 65.0275C32.1915 65.2883 32.4229 65.816 32.4229 65.816L32.9393 65.7597C32.9393 65.7597 32.8454 65.0275 32.8454 64.7646C32.8454 64.536 32.7891 64.3798 32.9393 64.0606C33.0895 63.7414 33.5306 63.9292 33.7842 63.6382C33.9691 63.4258 33.878 62.6807 33.9531 62.4929Z" fill="#131313"/>
<path d="M30.4648 134.221C30.4649 133.719 30.7111 133.359 30.7995 133.123C30.8879 132.887 31.04 132.559 31.1237 132.485C31.2074 132.412 32.2948 132.705 33.2464 132.621C34.1981 132.538 34.4177 131.46 35.0975 131.732C35.7772 132.004 36.321 132.253 36.7394 132.454C37.2623 132.705 37.9838 132.579 38.4022 132.621C38.8205 132.663 38.8135 132.921 38.8205 133.144C38.8205 133.406 38.8205 133.815 38.5174 134.075C38.371 134.2 37.8795 134.619 37.189 134.797C36.4986 134.974 35.202 134.964 34.5955 135.11C33.9889 135.257 32.9538 135.821 32.3786 135.821C31.8035 135.821 30.9356 135.905 30.7995 135.821C30.6634 135.738 30.6322 135.236 30.6322 135.236C30.6391 135.089 30.4648 134.673 30.4648 134.221Z" fill="#612F82"/>
<path d="M30.4648 134.221C30.4649 133.719 30.7111 133.359 30.7995 133.123C30.8879 132.887 31.04 132.559 31.1237 132.485C31.2074 132.412 32.2948 132.705 33.2464 132.621C33.8718 132.566 34.1811 132.082 34.5125 131.834C34.9307 131.985 35.1654 131.981 35.8925 132.454C36.6196 132.927 36.7394 133.646 36.8962 134.232C36.1774 134.447 35.3382 134.389 34.5955 134.483C33.8955 134.571 33.2464 135.11 32.6085 135.236C31.9706 135.361 31.3015 135.285 30.6322 135.236C30.6391 135.089 30.4648 134.673 30.4648 134.221Z" fill="black" fill-opacity="0.1"/>
<path d="M32.6091 135.236C31.9712 135.361 31.3021 135.284 30.6328 135.236C30.6328 135.236 30.664 135.738 30.8001 135.821C30.9363 135.905 31.8041 135.821 32.3793 135.821C32.9545 135.821 33.9896 135.257 34.5961 135.11C35.2027 134.964 36.4993 134.974 37.1897 134.796C37.8801 134.619 38.3716 134.2 38.5181 134.075C38.8211 133.815 38.8211 133.405 38.8211 133.144C38.2913 133.507 37.6157 134.016 36.8969 134.232C36.178 134.447 35.3389 134.389 34.5961 134.483C33.8962 134.571 33.2471 135.11 32.6091 135.236Z" fill="black" fill-opacity="0.2"/>
<path d="M173.474 93.3774L165.363 93.6552C165.363 93.6552 165.183 95.3031 165.271 96.9235C165.358 98.5439 166.215 99.7499 166.215 100.923C166.215 102.684 167.02 107.571 167.502 110.867C167.811 112.981 168.001 114.275 168.428 116.403C168.557 117.551 168.709 119.26 168.789 120.07C168.882 121.014 169.333 122.268 169.355 123.477C169.393 125.522 169.355 127.366 169.355 128.958C169.355 130.833 169.355 133.159 169.17 135.455C169.053 136.9 168.781 137.77 168.114 138.473C167.448 139.177 166.407 139.841 165.09 140.72C164.3 141.246 161.581 140.962 162.46 141.788C163.339 142.613 164.554 142.933 165.375 142.933C166.95 142.933 167.377 142.051 168.428 141.788C169.961 141.405 169.868 141.795 171.266 141.635C172.663 141.475 172.265 139.626 171.984 138.66L171.973 138.619C171.798 138.018 171.745 137.835 171.745 136.603C171.745 135.566 173.829 130.035 174.151 127.974C174.521 125.604 173.633 120.929 173.633 119.855C173.633 118.781 174.559 114.745 174.559 112.671C174.559 110.041 174.003 108.087 174.003 107.309C174.003 105.865 174.707 104.96 175.299 103.775C175.892 102.59 176.92 100.715 176.04 98.4789C175.698 97.6101 175.196 96.7198 174.566 95.5902C173.937 94.4607 173.788 94.0996 173.474 93.3774Z" fill="#EEB3B6"/>
<path d="M173.474 93.3774L165.308 93.7075C165.308 93.7075 165.126 95.2908 165.213 96.9113C165.301 98.5317 165.967 99.727 165.967 100.9C165.967 102.661 166.742 107.561 167.223 110.857C167.532 112.971 167.911 114.288 168.339 116.417C168.468 117.565 168.62 119.266 168.7 120.076C168.793 121.02 169.18 122.275 169.202 123.484C169.24 125.529 169.202 127.372 169.202 128.965C169.202 130.84 169.288 133.136 168.982 135.419C168.789 136.864 168.244 137.815 167.93 138.419C167.617 139.023 168.483 138.843 169.642 138.843C170.801 138.843 171.985 139.053 171.985 138.66C171.985 138.026 172.155 137.778 172.155 136.519C172.155 135.482 173.953 130.067 174.275 128.007C174.645 125.637 173.71 120.914 173.71 119.84C173.71 118.766 174.699 114.753 174.699 112.679C174.699 110.049 174.181 108.101 174.181 107.324C174.181 105.879 174.782 104.991 175.374 103.806C175.967 102.621 176.992 100.671 176.112 98.4346C175.771 97.5659 175.203 96.6588 174.573 95.5292C173.944 94.3997 173.789 94.0996 173.474 93.3774Z" fill="url(#paint24_linear_810_29639)"/>
<path d="M173.474 93.3774L165.308 93.7075C165.308 93.7075 165.126 95.2908 165.213 96.9113C165.301 98.5317 165.967 99.727 165.967 100.9C165.967 102.661 166.742 107.561 167.223 110.857C167.532 112.971 167.911 114.288 168.339 116.417C168.468 117.565 168.62 119.266 168.7 120.076C168.793 121.02 169.18 122.275 169.202 123.484C169.24 125.529 169.202 127.372 169.202 128.965C169.202 130.84 169.288 133.136 168.982 135.419C168.789 136.864 168.244 137.815 167.93 138.419C167.617 139.023 168.483 138.843 169.642 138.843C170.801 138.843 171.985 139.053 171.985 138.66C171.985 138.026 172.155 137.778 172.155 136.519C172.155 135.482 173.953 130.067 174.275 128.007C174.645 125.637 173.71 120.914 173.71 119.84C173.71 118.766 174.699 114.753 174.699 112.679C174.699 110.049 174.181 108.101 174.181 107.324C174.181 105.879 174.782 104.991 175.374 103.806C175.967 102.621 176.992 100.671 176.112 98.4346C175.771 97.5659 175.203 96.6588 174.573 95.5292C173.944 94.3997 173.789 94.0996 173.474 93.3774Z" fill="black" fill-opacity="0.2"/>
<path d="M162.235 141.634C161.962 140.869 164.062 141.062 164.997 140.775C165.04 140.759 165.07 140.751 165.07 140.751C165.046 140.76 165.022 140.768 164.997 140.775C164.826 140.841 164.436 141.049 164.77 141.497C165.19 142.059 166.747 141.418 168.265 140.751C169.784 140.085 171.984 138.659 171.984 138.659C172.118 139.119 172.278 139.778 172.259 140.361C172.259 140.361 172.299 141.172 171.88 141.787C171.46 142.402 171.5 143.447 171.5 143.447H170.402C170.402 143.447 170.524 142.706 170.342 142.239C170.161 141.772 169.094 141.822 168.765 141.979C168.435 142.136 168.186 142.349 167.656 142.688C166.992 143.114 166.508 143.776 165.21 143.726C163.913 143.676 163.154 143.251 162.794 142.778C162.435 142.305 162.235 141.634 162.235 141.634Z" fill="#B4B3EE"/>
<path d="M168.684 141.709C169.98 141.385 169.867 141.793 171.265 141.633C171.997 141.55 172.236 141.002 172.258 140.36C172.258 140.36 172.298 141.171 171.879 141.786C171.459 142.401 171.499 143.446 171.499 143.446H170.401C170.401 143.446 170.523 142.705 170.341 142.238C170.16 141.771 169.093 141.821 168.764 141.979C168.434 142.136 168.185 142.348 167.655 142.687C166.991 143.113 166.507 143.776 165.209 143.726C163.912 143.676 163.153 143.251 162.793 142.777C162.434 142.304 162.234 141.633 162.234 141.633C162.516 142.418 164.031 143.336 165.209 143.286C166.783 143.22 167.633 141.972 168.684 141.709Z" fill="black" fill-opacity="0.5"/>
<path d="M173.455 93.4424L165.381 93.6646C165.381 93.6646 165.14 95.4237 165.261 97.044C165.375 98.588 165.853 99.8215 165.853 101.081C165.853 102.34 164.431 105.348 163.522 107.515C162.68 109.524 161.963 113.174 160.93 115.856C160.266 117.578 159.82 118.09 159.892 118.93C160.077 121.073 161.774 122.59 163.511 124.142L163.522 124.152C165.187 125.64 166.3 126.337 169.188 128.707C171.851 130.892 172.899 131.254 174.158 132.254C175.222 133.099 175.418 133.976 175.677 134.735C175.934 135.49 176.413 136.612 176.524 137.772C176.635 138.933 175.553 140.693 176.524 140.822C177.495 140.951 178.868 139.762 179.047 138.513C179.164 137.694 178.824 136.986 178.824 135.571C178.824 133.876 180.393 132.711 179.38 131.365C178.812 130.611 177.667 131.206 176.862 130.81C176.128 130.449 172.558 126.929 170.558 124.152C168.959 121.929 166.028 119.633 164.929 118.93C165.744 117.498 168.193 113.857 168.521 113.42C169.743 111.79 171.67 107.395 172.677 106.441C174.084 105.108 176.547 101.868 175.677 98.8864C174.806 95.9052 174.492 95.4422 173.455 93.4424Z" fill="#FFC1C4"/>
<path d="M173.454 93.4424L165.38 93.6646C165.38 93.6646 165.14 95.4237 165.26 97.044C165.375 98.588 165.601 99.8215 165.601 101.081C165.601 102.34 164.179 105.348 163.27 107.515C162.428 109.524 161.711 113.174 160.678 115.856C160.014 117.578 159.568 118.09 159.641 118.93C159.825 121.073 161.522 122.59 163.259 124.142L163.27 124.152C164.936 125.64 166.155 126.548 169.044 128.918C171.707 131.103 172.465 131.53 173.724 132.53C173.982 132.735 174.697 133.354 174.996 133.472C175.295 133.59 176.205 132.467 176.472 132.106C176.739 131.745 177.085 131.305 177.195 130.818C177.304 130.331 172.74 126.929 170.74 124.152C169.14 121.929 166.373 119.633 165.275 118.93C166.089 117.498 168.433 113.964 168.761 113.527C169.983 111.898 171.743 107.602 172.75 106.648C174.157 105.315 176.699 101.809 175.828 98.8274C174.958 95.8461 174.491 95.4422 173.454 93.4424Z" fill="url(#paint25_linear_810_29639)"/>
<path d="M176.582 140.931C175.579 140.931 176.401 139.073 176.51 138.069C176.509 137.976 176.521 137.907 176.521 137.907C176.52 137.958 176.516 138.012 176.51 138.069C176.511 138.306 176.593 138.7 177.15 138.526C177.926 138.283 177.891 136.578 177.926 134.987C177.961 133.396 177.409 130.928 177.409 130.928C177.887 130.969 178.5 130.821 179.037 131.048C179.16 131.1 179.274 131.163 179.376 131.236C179.623 131.393 179.955 131.645 180.191 131.987C180.614 132.599 181.604 132.937 181.604 132.937L181.209 133.962C181.209 133.962 180.561 133.582 180.06 133.584C179.56 133.585 179.223 134.599 179.251 134.962C179.28 135.326 179.388 135.636 179.514 136.251C179.673 137.024 180.117 137.714 179.604 138.907C179.091 140.1 178.421 140.656 177.85 140.821C177.28 140.986 176.582 140.931 176.582 140.931Z" fill="#B4B3EE"/>
<path d="M178.969 134.94C179.133 133.614 179.473 133.867 179.826 132.505C180.011 131.791 179.586 131.371 178.995 131.121C178.995 131.121 179.766 131.375 180.189 131.987C180.613 132.599 181.602 132.938 181.602 132.938L181.207 133.962C181.207 133.962 180.56 133.583 180.059 133.584C179.558 133.586 179.221 134.599 179.249 134.963C179.278 135.327 179.386 135.636 179.512 136.252C179.671 137.024 180.115 137.714 179.602 138.907C179.089 140.101 178.419 140.656 177.849 140.821C177.278 140.986 176.58 140.932 176.58 140.932C177.414 140.951 178.815 139.867 179.192 138.75C179.696 137.257 178.836 136.016 178.969 134.94Z" fill="black" fill-opacity="0.5"/>
<path d="M160.092 90.9558C160.312 90.9889 160.873 91.0535 161.076 91.1583L161.068 89.5433C160.991 89.5155 160.762 89.4413 160.547 89.4266C160.547 89.4266 159.682 89.0255 159.343 88.9916C159.005 88.9578 158.816 88.9962 158.576 89.0563C158.336 89.1164 158.091 89.1534 157.924 89.1257C157.758 89.098 157.485 89.061 157.462 89.2274C157.439 89.3938 157.603 89.5971 157.772 89.6392C157.94 89.6813 158.067 89.6207 158.155 89.6115C158.243 89.6022 158.541 89.5791 158.541 89.6392C158.541 89.6993 158.328 89.8241 158.111 89.8611C157.894 89.8981 156.84 89.972 156.84 89.972C156.84 89.972 156.923 90.1661 157.025 90.3234C157.127 90.4806 157.182 90.5776 157.399 90.7625C157.552 90.8929 157.848 91.0168 158.083 91.0584L158.087 91.0591C158.213 91.0813 158.337 91.1032 158.606 91.0584C158.828 91.0214 159.847 90.9188 160.092 90.9558Z" fill="#EFB2B2"/>
<path d="M159.975 90.0941C160.101 89.9776 160.349 89.7378 160.525 89.5356L160.22 89.5806C159.882 89.6315 159.708 89.6961 159.453 89.7794C159.034 89.9157 158.675 90.0315 158.502 90.0941C158.281 90.174 158.082 90.233 157.83 90.2417C157.578 90.2503 155.934 90.154 155.833 90.1585C155.732 90.1629 154.778 89.5609 154.522 89.5862C154.266 89.6115 154.078 89.751 154.132 89.8487C154.186 89.9464 154.387 90.0036 154.503 90.0594C154.618 90.1152 155.353 90.5055 155.551 90.5745C155.714 90.6314 156.989 90.8519 157.525 90.9351C157.662 90.9563 158.368 91.0688 158.597 90.9998C158.721 90.9625 158.93 90.838 159.189 90.6577C159.39 90.5178 159.779 90.2743 159.975 90.0941Z" fill="#EAB2B2"/>
<path d="M159.452 90.2874C159.601 90.2018 159.9 90.0331 160.117 89.9047L159.752 89.8343C159.456 89.8066 159.222 89.8386 159.017 89.9047C158.716 90.0018 158.229 90.1306 158.046 90.1533C157.813 90.1822 157.532 90.1476 157.2 90.084C156.868 90.0204 155.979 89.9228 155.879 89.9047C155.779 89.8866 154.565 88.8774 154.306 88.7989C154.047 88.7203 153.779 88.8543 153.816 88.9745C153.853 89.0947 154.02 89.1261 154.154 89.2334C154.288 89.3407 155.437 90.3473 155.615 90.4584C155.761 90.55 156.53 90.6849 156.978 90.8144C157.111 90.8528 157.738 91.0269 157.977 91.0104C158.106 91.0014 158.273 90.9207 158.513 90.7866C158.727 90.6674 159.221 90.4197 159.452 90.2874Z" fill="#EBB9B9"/>
<path d="M172.224 77.3034C171.743 76.6183 170.095 76.6553 169.576 77.1367C169.058 77.6182 168.354 78.9144 168.095 79.8958C167.836 80.8772 168.28 82.4697 168.28 83.5251C168.28 84.6917 168.188 89.0803 167.891 89.3025C167.595 89.5247 165.188 89.6728 164.521 89.6728C163.854 89.6728 161.077 89.4915 161.077 89.4915C161.077 89.4915 160.735 89.4638 160.492 89.4041C160.231 89.3399 159.789 89.5197 159.614 89.5751C159.438 89.6306 158.222 90.1068 158.051 90.1345C157.88 90.1622 156.933 90.0143 156.84 89.9727C156.748 89.9311 156.074 88.93 155.844 88.8074C155.614 88.6848 155.308 88.7658 155.336 88.8813C155.363 88.9969 155.484 89.0799 155.562 89.1818C155.64 89.2837 156.202 90.1761 156.313 90.3401C156.41 90.4831 157.057 90.6938 157.418 90.8788C157.551 90.9188 157.876 91.0914 158.111 91.133C158.239 91.1555 158.335 91.1366 158.606 91.0914C158.828 91.0544 159.755 90.9911 160.003 90.9911C160.24 90.9911 160.845 91.1075 161.077 91.1601C161.345 91.2064 162.587 91.3764 164.521 91.8012C166.039 92.1345 168.928 92.3393 169.891 92.2282C170.854 92.1171 171.224 89.5802 171.558 87.2471C171.891 84.9139 172.224 83.377 172.706 81.0438C173.187 78.7107 172.706 77.9885 172.224 77.3034Z" fill="#F8C0C3"/>
<path d="M163.32 89.557L152.79 87.4153C152.76 87.4089 152.729 87.4109 152.701 87.4209C152.687 87.4261 152.672 87.4325 152.658 87.4371L151.769 87.711C151.754 87.7155 151.739 87.7207 151.728 87.7313C151.616 87.8376 151.651 88.3017 151.792 88.3326L162.069 90.5306C162.142 90.5465 162.216 90.5523 162.289 90.5481C162.401 90.5418 162.504 90.4926 162.601 90.4359L163.342 90.0009C163.361 89.9895 163.383 89.9822 163.402 89.9705C163.528 89.8932 163.475 89.5907 163.32 89.557Z" fill="#612F82"/>
<path d="M163.32 89.557L152.79 87.4153C152.76 87.4089 152.729 87.4109 152.701 87.4209C152.687 87.4261 152.672 87.4325 152.658 87.4371L151.769 87.711C151.754 87.7155 151.739 87.7207 151.728 87.7313C151.616 87.8376 151.651 88.3017 151.792 88.3326L162.069 90.5306C162.142 90.5465 162.216 90.5523 162.289 90.5481C162.401 90.5418 162.504 90.4926 162.601 90.4359L163.342 90.0009C163.361 89.9895 163.383 89.9822 163.402 89.9705C163.528 89.8932 163.475 89.5907 163.32 89.557Z" fill="black" fill-opacity="0.2"/>
<path d="M163.307 89.5429L152.786 87.2523C152.751 87.2446 152.714 87.2489 152.681 87.2644L151.789 87.6904C151.651 87.7567 151.673 87.9608 151.823 87.9955L161.971 90.3431C162.159 90.3868 162.357 90.3616 162.529 90.2722L163.348 89.846C163.483 89.7758 163.456 89.5753 163.307 89.5429Z" fill="white" fill-opacity="0.21"/>
<path d="M154.011 87.5864L152.874 88.05L153.421 88.1759L154.532 87.6997L154.011 87.5864Z" fill="white" fill-opacity="0.5"/>
<path d="M154.797 87.7573L153.76 88.2539L154.453 88.4137L155.445 87.8979L154.797 87.7573Z" fill="white" fill-opacity="0.5"/>
<path d="M155.642 87.9407L154.681 88.4662L155.445 88.642L156.412 88.1062L155.642 87.9407Z" fill="white" fill-opacity="0.5"/>
<path d="M156.601 88.1469L155.642 88.6874L156.392 88.8601L157.363 88.3145L156.601 88.1469Z" fill="white" fill-opacity="0.5"/>
<path d="M157.514 88.3501L156.55 88.8965L157.304 89.0701L158.356 88.5305L157.514 88.3501Z" fill="white" fill-opacity="0.5"/>
<path d="M158.57 88.5787L157.515 89.1188L158.345 89.3099L159.418 88.756L158.57 88.5787Z" fill="white" fill-opacity="0.5"/>
<path d="M160.058 89.008L159.418 89.3637L161.44 89.8006L162.121 89.4653L160.058 89.008Z" fill="white" fill-opacity="0.5"/>
<path d="M150.605 77.4255L151.17 78.8693C151.182 78.8955 151.191 78.9231 151.195 78.9516L152.562 87.1121C152.574 87.1835 152.537 87.2542 152.472 87.2855L151.991 87.5866C151.893 87.6336 151.681 87.6323 151.641 87.453L150.071 77.5668C150.041 77.3801 150.526 77.2536 150.605 77.4255Z" fill="#AD36B9"/>
<path d="M150.605 77.4255L151.17 78.8693C151.182 78.8955 151.191 78.9231 151.195 78.9516L152.562 87.1121C152.574 87.1835 152.537 87.2542 152.472 87.2855L151.991 87.5866C151.893 87.6336 151.681 87.6323 151.641 87.453L150.071 77.5668C150.041 77.3801 150.526 77.2536 150.605 77.4255Z" fill="#612F82"/>
<path d="M150.695 77.4883L151.321 78.8467C151.339 78.8872 151.352 78.93 151.36 78.9739L152.712 87.0454C152.73 87.1557 152.673 87.265 152.573 87.3134L152.14 87.5213C151.988 87.594 151.81 87.5005 151.783 87.3347L150.219 77.6334C150.172 77.3448 150.573 77.2227 150.695 77.4883Z" fill="#612F82"/>
<path d="M150.695 77.4883L151.321 78.8467C151.339 78.8872 151.352 78.93 151.36 78.9739L152.712 87.0454C152.73 87.1557 152.673 87.265 152.573 87.3134L152.14 87.5213C151.988 87.594 151.81 87.5005 151.783 87.3347L150.219 77.6334C150.172 77.3448 150.573 77.2227 150.695 77.4883Z" fill="white" fill-opacity="0.2"/>
<path d="M150.567 77.4845L151.309 78.8806C151.317 78.8979 151.326 78.9282 151.331 78.9468C151.333 78.9575 151.335 78.9683 151.337 78.9792L152.697 87.0626C152.709 87.134 152.672 87.2047 152.607 87.236L152.196 87.4094C152.098 87.4564 151.983 87.396 151.965 87.2887L150.384 77.6115C150.354 77.4247 150.488 77.3126 150.567 77.4845Z" fill="#AD36B9"/>
<path d="M150.567 77.4845L151.309 78.8806C151.317 78.8979 151.326 78.9282 151.331 78.9468C151.333 78.9575 151.335 78.9683 151.337 78.9792L152.697 87.0626C152.709 87.134 152.672 87.2047 152.607 87.236L152.196 87.4094C152.098 87.4564 151.983 87.396 151.965 87.2887L150.384 77.6115C150.354 77.4247 150.488 77.3126 150.567 77.4845Z" fill="#B4B3EE"/>
<path d="M157.13 90.8694C157.261 90.9154 157.858 91.1038 158.092 91.156C158.199 91.18 158.364 91.127 158.578 91.0903L157.999 90.149C157.817 90.1993 157.67 90.2323 157.616 90.2268C157.445 90.2099 156.409 90.045 156.319 89.9992C156.228 89.9535 155.256 88.8673 155.066 88.6778C154.877 88.4883 154.498 88.5946 154.498 88.7056C154.498 88.8165 154.626 88.8963 154.747 89.0338C154.868 89.1712 155.679 90.2268 155.817 90.384C155.932 90.5135 156.707 90.7201 157.13 90.8694Z" fill="#F1BFBF"/>
<path d="M157.418 90.8791C157.551 90.9192 157.876 91.0918 158.111 91.1334C158.239 91.1559 158.335 91.137 158.606 91.0918C158.441 90.8413 158.099 90.2993 158.051 90.1349C157.88 90.1626 156.933 90.0147 156.84 89.9731C156.748 89.9315 156.074 88.9303 155.844 88.8077C155.614 88.6851 155.308 88.7661 155.336 88.8817C155.363 88.9973 155.484 89.0803 155.562 89.1822C155.64 89.2841 156.202 90.1765 156.313 90.3404C156.41 90.4835 157.057 90.6942 157.418 90.8791Z" fill="#F8C0C3"/>
<path d="M171.678 73.61C171.012 74.0729 170.613 74.247 170.03 74.4988C169.529 74.7158 169.357 74.7694 168.956 74.8691C169.134 75.1156 169.175 75.1481 169.19 75.9777C169.204 76.8072 169.196 76.9262 169.19 77.0435C168.288 77.8891 166.397 79.8514 165.819 80.3107C165.097 80.8847 163.356 82.292 163.819 83.7178C164.304 85.2111 164.431 84.9399 164.893 85.8658C165.323 86.7249 165.568 89.1598 165.568 90.3309C165.568 91.8771 165.346 93.664 165.346 93.664C165.346 93.664 170.358 93.6146 173.493 93.4048C173.308 92.0715 173.586 90.6151 173.882 89.331C174.429 86.9608 175.086 85.175 175.086 82.0353C175.086 79.7105 174.848 79.162 174.353 78.0168L174.345 77.9985C173.982 77.1589 172.856 76.0691 172.856 74.126C172.856 72.7372 173.238 72.1339 173.493 71.499C173.129 72.3792 172.345 73.147 171.678 73.61Z" fill="#FFC1C4"/>
<path d="M163.737 83.5296C163.447 81.8666 165.095 80.8848 165.817 80.3108C165.968 80.1909 166.208 79.9687 166.497 79.6907L170.525 77.737C170.677 77.7274 171.122 77.6416 171.677 77.3758C172.232 77.11 172.892 76.2069 173.153 75.7886C173.513 76.7593 174.196 77.3354 174.44 77.8988C174.94 79.0565 175.178 79.655 175.178 81.9921C175.178 85.1318 174.527 86.87 173.98 89.2402C173.684 90.5243 173.301 92.3951 173.681 93.5133C174.06 94.6314 174.233 94.621 174.824 95.6859C175.285 96.5172 177.007 99.8576 176.708 100.335C175.955 101.537 174.441 101.277 171.677 101.277C168.912 101.277 165.255 102.219 164.995 101.277C164.735 100.335 164.775 99.455 164.995 98.1987C165.385 95.9691 165.155 94.2321 165.255 93.6331C165.354 93.034 165.474 91.7848 165.474 90.2386C165.474 89.0675 165.205 86.8846 164.775 86.0255C164.313 85.0996 163.957 84.7875 163.737 83.5296Z" fill="#FD9B4D"/>
<path d="M163.737 83.5296C163.447 81.8666 165.095 80.8848 165.817 80.3108C165.968 80.1909 166.208 79.9687 166.497 79.6907L170.525 77.737C170.677 77.7274 171.122 77.6416 171.677 77.3758C172.232 77.11 172.892 76.2069 173.153 75.7886C173.513 76.7593 174.196 77.3354 174.44 77.8988C174.94 79.0565 175.178 79.655 175.178 81.9921C175.178 85.1318 174.527 86.87 173.98 89.2402C173.684 90.5243 173.301 92.3951 173.681 93.5133C174.06 94.6314 174.233 94.621 174.824 95.6859C175.285 96.5172 177.007 99.8576 176.708 100.335C175.955 101.537 174.441 101.277 171.677 101.277C168.912 101.277 165.255 102.219 164.995 101.277C164.735 100.335 164.775 99.455 164.995 98.1987C165.385 95.9691 165.155 94.2321 165.255 93.6331C165.354 93.034 165.474 91.7848 165.474 90.2386C165.474 89.0675 165.205 86.8846 164.775 86.0255C164.313 85.0996 163.957 84.7875 163.737 83.5296Z" fill="white" fill-opacity="0.7"/>
<path d="M172.87 79.1106C171.841 78.8256 170.479 79.5427 170.079 80.685C169.591 82.301 169.514 83.7354 169.207 84.7951C168.959 85.6487 168.291 88.2603 168.125 88.6303C167.12 88.4232 164.963 87.9578 164.369 87.753C163.775 87.5481 161.801 86.7999 160.888 86.4514L158.807 85.8096C158.807 85.8096 157.482 85.3414 157.178 85.27C156.873 85.1986 155.523 85.3677 155.357 85.4035C155.192 85.4393 154.921 85.6208 154.683 85.7774C154.445 85.9341 154.349 86.0302 154.207 86.1017C154.081 86.1651 153.954 86.2384 153.898 86.2861C153.817 86.3548 154 86.5449 154.197 86.5316C154.369 86.5199 154.613 86.3515 154.76 86.2563C154.944 86.1376 155.21 85.9906 155.429 85.9485C156.051 85.829 156.905 85.9059 156.905 85.9059C156.905 85.9059 155.677 85.9231 155.397 85.9982C155.117 86.0733 154.884 86.2389 154.566 86.4378C154.305 86.6012 154.078 86.7167 154.078 86.7167C154.078 86.7167 153.928 86.7744 153.732 86.8384C153.537 86.9024 153.784 87.24 154.042 87.1867C154.329 87.1272 154.826 86.8842 154.826 86.8842C154.826 86.8842 155.319 86.6111 155.494 86.5664C155.669 86.5217 156.883 86.548 156.883 86.548C156.883 86.548 155.703 86.6885 155.499 86.7322C155.359 86.7621 155.152 86.8773 154.846 86.9983C154.706 87.054 154.455 87.1469 154.365 87.1735C154.081 87.2578 154.063 87.2182 153.988 87.3357C153.912 87.4532 154.144 87.6322 154.388 87.6353C154.486 87.6366 154.696 87.5563 154.902 87.4854C155.211 87.379 155.504 87.287 155.575 87.2597C155.693 87.2143 156.947 87.2364 156.947 87.2364L156.135 87.3174C156.135 87.3174 155.677 87.396 155.554 87.4063C155.475 87.4129 155.166 87.6053 154.911 87.7464C154.768 87.8254 154.614 87.8615 154.595 87.9049C154.54 88.0259 154.718 88.1744 154.942 88.1764C155.166 88.1785 155.488 87.9377 155.611 87.913C155.735 87.8882 156.378 87.8841 156.378 87.8841C156.378 87.8841 156.796 87.8669 157.025 87.9179C157.255 87.969 157.275 88.013 157.569 88.0662C157.863 88.1195 158.369 88.1292 158.722 88.1411C159.328 88.1615 159.75 87.9919 160.211 88.0363C160.672 88.0807 162.297 89.015 162.813 89.3475C163.466 89.7679 165.299 90.6417 166.24 90.9912C167.182 91.3406 168.962 92.0893 169.605 91.8726C170.54 91.5573 172.24 87.9668 172.676 86.8836C173.089 85.8573 174.051 82.4331 174.255 81.761C174.499 80.9602 174.287 79.503 172.87 79.1106Z" fill="#F8BCBF"/>
<path d="M174.411 70.1148C174.411 72.4364 171.109 73.9981 170.708 74.2183C170.308 74.4385 169.872 74.626 169.347 74.8188C168.822 75.0116 168.226 75.1891 167.776 75.1891C167.325 75.1891 167.09 74.9139 167.01 74.7237C166.93 74.5336 167.01 74.2033 167.01 74.0081C167.01 73.813 166.576 73.7017 166.54 73.4927C166.503 73.2837 166.703 73.1819 166.695 73.1123C166.686 73.0427 166.369 72.9972 166.354 72.8972C166.339 72.7971 166.439 72.6469 166.439 72.6469C166.475 72.5268 166.5 72.4707 166.439 72.2566C166.354 71.9564 165.674 71.9263 165.674 71.6661C165.674 71.4059 166.465 70.409 166.545 70.2649C166.622 70.1255 166.275 69.9784 166.103 69.9428C166.097 69.9417 166.091 69.9406 166.086 69.9396C166.091 69.9406 166.097 69.9416 166.103 69.9428C166.224 69.9663 166.499 70.0214 166.515 69.9146C166.531 69.8025 166.1 69.5513 166.086 69.2863C165.974 67.2655 167.592 65.9111 170.208 65.9111C172.824 65.9111 174.411 67.7932 174.411 70.1148Z" fill="#F8BCBF"/>
<path d="M171.182 64.056C169.101 62.9402 165.827 67.2127 166.078 68.1707C166.329 69.1287 167.664 68.9716 167.837 69.3642C168.01 69.7568 168.512 71.877 169.266 72.6308C170.208 73.5731 170.899 72.6622 171.747 74.8609C172.394 76.5385 173.066 75.8974 173.161 78.9127C173.288 82.9707 176.059 82.2854 177.275 82.6505C179.474 83.3101 180.479 82.8703 181.484 81.1742C182.489 79.4781 179.474 79.5723 179.223 77.782C178.928 75.6811 176.437 75.7894 176.584 73.0077C176.773 69.4584 175.674 69.8982 175.422 67.8252C174.941 63.8499 172.705 64.8727 171.182 64.056Z" fill="black"/>
<path d="M174.171 77.8689C174.522 79.2042 175.264 79.9335 175.829 80.6716C175.39 79.8392 174.512 78.9142 174.24 77.8689C173.904 76.5737 174.249 75.4821 173.411 74.264C172.572 73.046 172.081 72.7006 170.898 70.3693C170.219 69.0315 169.089 68.0051 167.911 67.8254C166.733 67.6457 166.273 67.6556 166.273 67.6556C166.273 67.6556 166.983 67.6645 167.971 67.9452C168.958 68.2259 169.684 68.7175 170.756 70.8005C171.445 72.1383 172.314 73.5968 173.112 74.5153C173.911 75.4338 173.831 76.5811 174.171 77.8689Z" fill="white" fill-opacity="0.1"/>
<path d="M169.233 70.5106C168.654 69.2926 167.851 68.8138 167.551 68.654C167.618 68.654 167.871 68.7179 168.35 68.9735C168.949 69.293 169.987 71.3876 170.207 71.767C170.427 72.1464 170.918 72.8156 171.338 73.4945C171.757 74.1734 172.463 74.5344 172.863 75.3431C172.957 75.5334 173.302 76.5012 173.302 76.7208C173.302 76.8965 173.756 78.5829 173.976 79.8549C174.176 81.0091 175.565 81.8659 175.82 82.0149C175.838 82.0242 175.852 82.0319 175.861 82.0379C175.861 82.0379 175.846 82.0301 175.82 82.0149C175.526 81.8616 174.084 81.2652 173.756 80.3732C173.474 79.6037 173.497 79.0517 173.018 76.8553C172.539 74.6589 172.07 74.8398 171.149 73.6044C170.77 73.0953 169.951 72.0204 169.233 70.5106Z" fill="white" fill-opacity="0.1"/>
<path d="M174.494 74.2798C174.99 75.5097 175.782 77.9547 176.913 78.6143C175.908 77.7662 175.342 75.0345 174.808 73.8557C174.16 72.4227 172.658 71.2248 172.249 70.118C171.386 67.7828 170.274 66.7998 169.076 66.6001C168.563 66.5146 167.993 66.5687 166.733 67.1565C167.531 67.1698 167.743 67.2283 168.909 67.3561C170.367 67.5159 170.509 69.2888 171.448 70.966C172.386 72.6433 173.875 72.7423 174.494 74.2798Z" fill="white" fill-opacity="0.1"/>
<path d="M176.087 80.265C176.79 81.5669 177.36 82.102 177.36 82.102C177.154 81.8225 176.597 81.0537 176.147 80.1652C175.94 79.7554 175.029 77.7625 174.54 76.4313C174.819 77.3664 175.385 78.9632 176.087 80.265Z" fill="white" fill-opacity="0.1"/>
<path d="M177.365 78.6277C177.981 79.3681 179.169 79.8695 179.379 80.169C179.156 79.8928 178.075 79.6037 177.226 78.6277C176.809 78.1493 175.598 75.5927 175.309 74.784C175.019 73.9753 174.51 72.1541 173.332 70.966C172.735 70.3635 172.625 68.022 171.134 66.8514C170.361 66.2451 168.709 66.1681 168.07 66.2579C167.432 66.3478 167.422 66.5375 167.052 66.7871C167.219 66.6074 167.724 66.2077 168.15 66.1381C168.576 66.0686 170.068 65.7785 171.291 66.6472C172.808 67.7254 172.598 69.7821 173.536 70.8404C174.475 71.8987 174.61 72.5277 175.379 74.7041C176.147 76.8806 177.028 78.2214 177.365 78.6277Z" fill="white" fill-opacity="0.1"/>
<path d="M171.086 66.1133C170.058 64.9452 168.839 65.579 168.58 65.619C168.786 65.4326 169.49 65.1528 169.957 65.0399C171.039 64.7784 171.445 65.5304 172.06 66.1133C172.639 66.6624 172.861 66.9299 173.238 67.9193C173.415 68.3833 173.803 69.5683 174.275 70.275C174.275 70.275 173.119 68.9266 172.83 68.2177C172.54 67.5089 171.909 67.0477 171.086 66.1133Z" fill="white" fill-opacity="0.1"/>
<path d="M175.119 72.308C174.584 70.4311 174.54 69.7722 173.921 67.9452L173.621 66.8669C173.741 67.1864 174.01 68.0696 174.25 68.8537C174.56 69.862 175.395 71.5761 175.5 72.2538C176.033 75.7246 178.719 78.0018 179.426 79.1953C178.845 78.363 176.316 76.5098 175.119 72.308Z" fill="white" fill-opacity="0.1"/>
<path d="M174.959 67.9452C174.441 66.3019 172.735 66.1133 171.872 65.171C171.872 65.171 172.484 65.5793 173.411 66.129C174.592 66.8297 175.091 67.9664 175.091 67.9664C175.091 67.9664 175.605 70.0707 175.844 70.98C175.89 71.1292 175.925 71.2561 175.955 71.3744C175.938 71.328 175.898 71.1841 175.844 70.98C175.756 70.6925 175.631 70.3224 175.437 69.7725C175.342 69.5055 175.248 68.8616 174.959 67.9452Z" fill="white" fill-opacity="0.1"/>
<path d="M172.593 64.5407C172.229 64.4166 171.864 64.5208 170.896 64.6006C170.896 64.6006 172.124 64.351 172.543 64.4409C172.963 64.5308 173.661 64.7005 174.061 65.0399C174.46 65.3794 174.879 66.1381 174.879 66.1381C174.879 66.1381 174.323 65.4621 173.921 65.0799C173.519 64.6977 173.296 64.7804 172.593 64.5407Z" fill="white" fill-opacity="0.1"/>
<g opacity="0.2">
<path d="M170.049 67.8176C169.68 67.5192 169.405 67.3674 169.201 67.2994C169.201 67.2994 169.727 67.4093 170.151 67.8019C170.575 68.1945 171.133 69.6158 171.133 69.6158C170.887 69.1133 170.418 68.116 170.049 67.8176Z" fill="#C4C4C4"/>
<path d="M170.246 67.7469C169.979 67.4643 169.28 67.2287 169.28 67.2287C169.28 67.2287 170.026 67.3229 170.324 67.7234C170.622 68.1239 171.078 69.2782 171.078 69.2782C171.078 69.2782 170.513 68.0296 170.246 67.7469Z" fill="#C4C4C4"/>
<path d="M171.726 66.6947C172.032 67.0245 172.346 67.4014 172.346 67.4014C172.346 67.4014 171.891 66.8989 171.706 66.7222C171.522 66.5455 171.235 66.2 171.235 66.2C171.235 66.2 171.419 66.3649 171.726 66.6947Z" fill="#C4C4C4"/>
<path d="M171.781 66.6751C171.463 66.3845 171.16 66.043 171.16 66.043C171.16 66.043 171.419 66.2982 171.828 66.6515C172.236 67.0049 172.523 67.6174 172.523 67.6174C172.523 67.6174 172.099 66.9656 171.781 66.6751Z" fill="#C4C4C4"/>
</g>
<g opacity="0.2">
<path d="M170.186 67.5577C169.817 67.2593 169.542 67.1075 169.338 67.0394C169.338 67.0394 169.864 67.1494 170.288 67.542C170.712 67.9346 171.27 69.3559 171.27 69.3559C171.024 68.8533 170.555 67.8561 170.186 67.5577Z" fill="#C4C4C4"/>
<path d="M170.382 67.487C170.115 67.2043 169.416 66.9688 169.416 66.9688C169.416 66.9688 170.162 67.063 170.461 67.4635C170.759 67.8639 171.215 69.0182 171.215 69.0182C171.215 69.0182 170.649 67.7697 170.382 67.487Z" fill="#C4C4C4"/>
</g>
<g opacity="0.2">
<path d="M171.837 66.5883C172.143 66.9181 172.457 67.295 172.457 67.295C172.457 67.295 172.002 66.7924 171.817 66.6158C171.633 66.4391 171.346 66.0936 171.346 66.0936C171.346 66.0936 171.531 66.2585 171.837 66.5883Z" fill="#C4C4C4"/>
<path d="M171.892 66.5686C171.574 66.2781 171.271 65.9365 171.271 65.9365C171.271 65.9365 171.531 66.1917 171.939 66.5451C172.347 66.8984 172.634 67.5109 172.634 67.5109C172.634 67.5109 172.21 66.8592 171.892 66.5686Z" fill="#C4C4C4"/>
</g>
<g opacity="0.1">
<path d="M171.923 66.455C172.229 66.7848 172.543 67.1617 172.543 67.1617C172.543 67.1617 172.088 66.6591 171.903 66.4825C171.719 66.3058 171.432 65.9603 171.432 65.9603C171.432 65.9603 171.617 66.1252 171.923 66.455Z" fill="#C4C4C4"/>
<path d="M171.978 66.4353C171.66 66.1448 171.357 65.8032 171.357 65.8032C171.357 65.8032 171.617 66.0584 172.025 66.4118C172.433 66.7651 172.72 67.3776 172.72 67.3776C172.72 67.3776 172.296 66.7259 171.978 66.4353Z" fill="#C4C4C4"/>
</g>
<g opacity="0.2">
<path d="M172.011 66.3217C172.317 66.6515 172.631 67.0284 172.631 67.0284C172.631 67.0284 172.176 66.5258 171.991 66.3492C171.807 66.1725 171.52 65.827 171.52 65.827C171.52 65.827 171.704 65.9919 172.011 66.3217Z" fill="#C4C4C4"/>
<path d="M172.066 66.302C171.748 66.0115 171.445 65.6699 171.445 65.6699C171.445 65.6699 171.704 65.9251 172.113 66.2785C172.521 66.6318 172.808 67.2443 172.808 67.2443C172.808 67.2443 172.384 66.5926 172.066 66.302Z" fill="#C4C4C4"/>
</g>
<defs>
<linearGradient id="paint0_linear_810_29639" x1="100.499" y1="8.47949" x2="178.036" y2="79.384" gradientUnits="userSpaceOnUse">
<stop stop-color="#323C74"/>
<stop offset="1" stop-color="#18204D"/>
</linearGradient>
<linearGradient id="paint1_linear_810_29639" x1="84.6828" y1="16.604" x2="124.865" y2="128.184" gradientUnits="userSpaceOnUse">
<stop stop-color="#B5CDFB"/>
<stop offset="1" stop-color="#6286CB"/>
</linearGradient>
<linearGradient id="paint2_linear_810_29639" x1="100.509" y1="129.712" x2="100.902" y2="135.842" gradientUnits="userSpaceOnUse">
<stop stop-color="#323C74"/>
<stop offset="1" stop-color="#18204D"/>
</linearGradient>
<linearGradient id="paint3_linear_810_29639" x1="85.3157" y1="14.8877" x2="95.2793" y2="33.4386" gradientUnits="userSpaceOnUse">
<stop stop-color="#323C74"/>
<stop offset="1" stop-color="#18204D"/>
</linearGradient>
<linearGradient id="paint4_linear_810_29639" x1="128.457" y1="48.2617" x2="128.457" y2="86.7426" gradientUnits="userSpaceOnUse">
<stop stop-color="#F1C051"/>
<stop offset="1" stop-color="#EEA24B"/>
</linearGradient>
<linearGradient id="paint5_linear_810_29639" x1="149.769" y1="57.119" x2="112.244" y2="82.3574" gradientUnits="userSpaceOnUse">
<stop stop-color="#323C74"/>
<stop offset="1" stop-color="#18204D"/>
</linearGradient>
<linearGradient id="paint6_linear_810_29639" x1="124.265" y1="54.9839" x2="127.033" y2="60.1024" gradientUnits="userSpaceOnUse">
<stop stop-color="#323C74"/>
<stop offset="1" stop-color="#18204D"/>
</linearGradient>
<linearGradient id="paint7_linear_810_29639" x1="153.24" y1="29.0024" x2="157.999" y2="42.0032" gradientUnits="userSpaceOnUse">
<stop stop-color="#323C74"/>
<stop offset="1" stop-color="#18204D"/>
</linearGradient>
<linearGradient id="paint8_linear_810_29639" x1="149.241" y1="30.6763" x2="150.336" y2="40.4975" gradientUnits="userSpaceOnUse">
<stop stop-color="#B5CDFB"/>
<stop offset="1" stop-color="#6286CB"/>
</linearGradient>
<linearGradient id="paint9_linear_810_29639" x1="89.7762" y1="40.4644" x2="115.898" y2="93.3149" gradientUnits="userSpaceOnUse">
<stop stop-color="#323C74"/>
<stop offset="1" stop-color="#18204D"/>
</linearGradient>
<linearGradient id="paint10_linear_810_29639" x1="81.3168" y1="50.8721" x2="108.774" y2="83.7301" gradientUnits="userSpaceOnUse">
<stop stop-color="#B5CDFB"/>
<stop offset="1" stop-color="#6286CB"/>
</linearGradient>
<linearGradient id="paint11_linear_810_29639" x1="42.8388" y1="52.1374" x2="69.4054" y2="90.327" gradientUnits="userSpaceOnUse">
<stop stop-color="#B5CDFB"/>
<stop offset="1" stop-color="#6286CB"/>
</linearGradient>
<linearGradient id="paint12_linear_810_29639" x1="54.8092" y1="79.873" x2="54.8092" y2="81.263" gradientUnits="userSpaceOnUse">
<stop stop-color="#F1C051"/>
<stop offset="1" stop-color="#EEA24B"/>
</linearGradient>
<linearGradient id="paint13_linear_810_29639" x1="54.9753" y1="73.3413" x2="54.9753" y2="78.6788" gradientUnits="userSpaceOnUse">
<stop stop-color="#F1C051"/>
<stop offset="1" stop-color="#EEA24B"/>
</linearGradient>
<linearGradient id="paint14_linear_810_29639" x1="55.2579" y1="53.8408" x2="61.8479" y2="66.2308" gradientUnits="userSpaceOnUse">
<stop stop-color="#323C74"/>
<stop offset="1" stop-color="#18204D"/>
</linearGradient>
<linearGradient id="paint15_linear_810_29639" x1="54.9766" y1="55.2026" x2="54.9766" y2="64.966" gradientUnits="userSpaceOnUse">
<stop stop-color="#F1C051"/>
<stop offset="1" stop-color="#EEA24B"/>
</linearGradient>
<linearGradient id="paint16_linear_810_29639" x1="36.0588" y1="57.6685" x2="36.0588" y2="61.9402" gradientUnits="userSpaceOnUse">
<stop stop-color="#F1C051"/>
<stop offset="1" stop-color="#EEA24B"/>
</linearGradient>
<linearGradient id="paint17_linear_810_29639" x1="117.225" y1="17.2684" x2="118.886" y2="20.5892" gradientUnits="userSpaceOnUse">
<stop stop-color="#F1C051"/>
<stop offset="1" stop-color="#EEA24B"/>
</linearGradient>
<linearGradient id="paint18_linear_810_29639" x1="121.468" y1="18.2476" x2="118.149" y2="27.1586" gradientUnits="userSpaceOnUse">
<stop stop-color="#844FFC"/>
<stop offset="1" stop-color="#491EB8"/>
</linearGradient>
<linearGradient id="paint19_linear_810_29639" x1="21.8402" y1="74.5835" x2="26.5993" y2="78.8722" gradientUnits="userSpaceOnUse">
<stop stop-color="#323C74"/>
<stop offset="1" stop-color="#18204D"/>
</linearGradient>
<linearGradient id="paint20_linear_810_29639" x1="26.7945" y1="95.9906" x2="41.4346" y2="100.235" gradientUnits="userSpaceOnUse">
<stop stop-color="#B5CDFB"/>
<stop offset="1" stop-color="#6286CB"/>
</linearGradient>
<linearGradient id="paint21_linear_810_29639" x1="27.9043" y1="95.6021" x2="46.0045" y2="101.712" gradientUnits="userSpaceOnUse">
<stop stop-color="#B5CDFB"/>
<stop offset="1" stop-color="#6286CB"/>
</linearGradient>
<linearGradient id="paint22_linear_810_29639" x1="29.2264" y1="72.0127" x2="46.1648" y2="90.3136" gradientUnits="userSpaceOnUse">
<stop stop-color="#323C74"/>
<stop offset="1" stop-color="#18204D"/>
</linearGradient>
<linearGradient id="paint23_linear_810_29639" x1="38.7654" y1="73.1572" x2="42.6283" y2="79.6724" gradientUnits="userSpaceOnUse">
<stop stop-color="#323C74"/>
<stop offset="1" stop-color="#18204D"/>
</linearGradient>
<linearGradient id="paint24_linear_810_29639" x1="170.822" y1="93.3774" x2="170.822" y2="138.899" gradientUnits="userSpaceOnUse">
<stop stop-color="#F1C051"/>
<stop offset="1" stop-color="#EEA24B"/>
</linearGradient>
<linearGradient id="paint25_linear_810_29639" x1="168.415" y1="93.4424" x2="168.415" y2="133.481" gradientUnits="userSpaceOnUse">
<stop stop-color="#F1C051"/>
<stop offset="1" stop-color="#EEA24B"/>
</linearGradient>
</defs>
</svg>
