<svg width="400" height="300" viewBox="0 0 400 300" fill="none" xmlns="http://www.w3.org/2000/svg">
<g clip-path="url(#clip0)">
<path d="M0 210.523C0 209.971 0.447715 209.523 1 209.523H206.086C208.847 209.523 211.086 211.762 211.086 214.523V234.129C211.086 236.891 208.847 239.129 206.086 239.129H0V210.523Z" fill="#14248F"/>
<path d="M32.5945 195.934L-0.572266 203.875H400.639V195.934H32.5945Z" fill="#FDD17B"/>
<path d="M400 250.078H248.645V300H400V250.078Z" fill="#14248F"/>
<path d="M-0.838827 244.531H400.874H-0.838827ZM400.874 204.125H-0.838867H400.874Z" stroke="#005B9D" stroke-width="0.5"/>
<path d="M215.101 214.523C215.101 211.762 217.339 209.523 220.101 209.523H399.999V239.129H220.101C217.339 239.129 215.101 236.891 215.101 234.129V214.523Z" fill="#14248F"/>
<path d="M333.02 222.57H316.261C315.135 222.57 314.222 223.483 314.222 224.61C314.222 225.736 315.135 226.649 316.261 226.649H333.02C334.147 226.649 335.06 225.736 335.06 224.61C335.06 223.483 334.147 222.57 333.02 222.57Z" fill="black" fill-opacity="0.27"/>
<path d="M333.182 222.57H315.857C314.887 222.57 314.101 223.356 314.101 224.327C314.101 225.297 314.887 226.084 315.857 226.084H333.182C334.152 226.084 334.939 225.297 334.939 224.327C334.939 223.356 334.152 222.57 333.182 222.57Z" fill="#FDD17B"/>
<path d="M333.182 273.281H315.857C314.887 273.281 314.101 274.068 314.101 275.038C314.101 276.008 314.887 276.795 315.857 276.795H333.182C334.152 276.795 334.939 276.008 334.939 275.038C334.939 274.068 334.152 273.281 333.182 273.281Z" fill="#FDD17B"/>
<path d="M114.693 250.078H0V300H114.693V250.078Z" fill="#14248F"/>
<path d="M66.0081 273.281H48.6836C47.7133 273.281 46.9268 274.068 46.9268 275.038C46.9268 276.008 47.7133 276.795 48.6836 276.795H66.0081C66.9784 276.795 67.765 276.008 67.765 275.038C67.765 274.068 66.9784 273.281 66.0081 273.281Z" fill="#FDD17B"/>
<path d="M68.6065 200.29C68.6065 200.867 58.564 200.848 50.867 200.848C43.1695 200.848 41.7168 200.867 41.7168 200.29C41.7168 199.714 43.1695 199.246 50.867 199.246C58.5645 199.246 68.6065 199.714 68.6065 200.29Z" fill="black" fill-opacity="0.5"/>
<path fill-rule="evenodd" clip-rule="evenodd" d="M45.7541 175.829C44.0943 175.829 42.7393 177.177 42.8904 178.83C43.7271 187.982 48.3539 199.904 60.523 199.904C73.3805 199.904 77.747 187.983 78.523 178.831C78.6635 177.177 77.308 175.829 75.6485 175.829H45.7541Z" fill="#14248F"/>
<path d="M46.4838 116.935C45.3929 107.674 57.9355 103.076 63.12 99.8037C61.157 103.076 51.4675 108.276 53.128 115.274C54.9505 122.952 67.924 116.57 71.5505 123.579C76.289 132.738 58.734 138.228 56.141 148.209C53.6765 157.695 63.12 173.015 63.12 173.015C63.12 173.015 46.046 156.295 45.2758 149.703C44.1849 140.366 61.2335 139.635 59.621 130.374C58.362 123.144 47.3424 124.224 46.4838 116.935Z" fill="#A8BBDE"/>
<path d="M61.8021 150.431C61.3721 146.782 68.4091 142.412 70.4516 141.123C69.6781 142.412 64.7701 147.674 65.4246 150.431C66.1431 153.457 71.6176 152.818 73.0466 155.58C74.4076 158.21 66.9921 169.42 66.9921 169.42C66.9921 169.42 68.1656 164.668 66.9921 157.928C66.4956 155.079 62.1401 153.304 61.8021 150.431Z" fill="#A8BBDE"/>
<path d="M46.9368 137.413C47.3667 133.763 40.3299 129.393 38.2869 128.104C39.0605 129.393 43.9685 134.655 43.314 137.413C42.5959 140.439 37.121 139.799 35.692 142.561C34.3314 145.191 45.4062 157.927 45.4062 157.927C45.4062 157.927 40.5732 151.649 41.7469 144.91C42.243 142.061 46.5985 140.285 46.9368 137.413Z" fill="#A8BBDE"/>
<path d="M270.309 177.268H226.98V195.717H270.309V177.268Z" fill="#14248F"/>
<path d="M226.98 177.268H270.309V179.426L226.98 183.016V177.268Z" fill="black" fill-opacity="0.5"/>
<path d="M316.975 195.716H180.315V200.626H316.975V195.716Z" fill="#14248F"/>
<path d="M350.714 70.4795H146.575C143.261 70.4795 140.575 73.1658 140.575 76.4795V171.268C140.575 174.582 143.261 177.268 146.575 177.268H350.714C354.028 177.268 356.714 174.582 356.714 171.268V76.4795C356.714 73.1658 354.028 70.4795 350.714 70.4795Z" fill="#14248F"/>
<path d="M343.535 75.5742H153.755C150.441 75.5742 147.755 78.2605 147.755 81.5742V166.173C147.755 169.487 150.441 172.173 153.755 172.173H343.535C346.849 172.173 349.535 169.487 349.535 166.173V81.5742C349.535 78.2605 346.849 75.5742 343.535 75.5742Z" fill="white"/>
<path d="M283.383 85.2344H166.041C163.51 85.2344 161.457 87.2869 161.457 89.8188V142.101C161.457 144.633 163.51 146.686 166.041 146.686H283.383C285.915 146.686 287.967 144.633 287.967 142.101V89.8188C287.967 87.2869 285.915 85.2344 283.383 85.2344Z" fill="#A8BBDE"/>
<g opacity="0.65">
<path opacity="0.65" d="M164.296 137.287H285.492" stroke="black" stroke-opacity="0.3" stroke-width="0.5" stroke-linecap="round"/>
<path opacity="0.65" d="M164.418 137.287H200.395" stroke="#005B9D" stroke-width="0.75" stroke-linecap="round"/>
</g>
<path d="M287.967 137.287V142.103C287.967 144.635 285.915 146.687 283.383 146.687H166.042C163.51 146.687 161.457 144.635 161.457 142.103V137.287H287.967Z" fill="black" fill-opacity="0.14"/>
<path d="M231.813 107.564H211.751C210.3 107.564 209.124 108.741 209.124 110.192V122.153C209.124 123.604 210.3 124.78 211.751 124.78H231.813C233.264 124.78 234.44 123.604 234.44 122.153V110.192C234.44 108.741 233.264 107.564 231.813 107.564Z" fill="#14248F"/>
<path d="M225.988 115.617C226.417 115.864 226.417 116.483 225.988 116.73L220.161 120.094C219.732 120.342 219.196 120.033 219.196 119.538V112.809C219.196 112.314 219.732 112.005 220.161 112.252L225.988 115.617Z" fill="#A8BBDE"/>
<path d="M287.967 151.082H161.457V154.415H287.967V151.082Z" fill="black" fill-opacity="0.14"/>
<path d="M287.967 158.319H161.457V172.172H287.967V158.319Z" fill="black" fill-opacity="0.14"/>
<path d="M314.542 85.2344H300.584C299.499 85.2344 298.619 86.114 298.619 87.1991V96.5729C298.619 97.658 299.499 98.5376 300.584 98.5376H314.542C315.627 98.5376 316.507 97.658 316.507 96.5729V87.1991C316.507 86.114 315.627 85.2344 314.542 85.2344Z" fill="#A8BBDE"/>
<path d="M336.243 85.2344H322.285C321.2 85.2344 320.32 86.114 320.32 87.1991V96.5729C320.32 97.658 321.2 98.5376 322.285 98.5376H336.243C337.328 98.5376 338.208 97.658 338.208 96.5729V87.1991C338.208 86.114 337.328 85.2344 336.243 85.2344Z" fill="#A8BBDE"/>
<path d="M314.542 102.352H300.584C299.499 102.352 298.619 103.232 298.619 104.317V113.691C298.619 114.776 299.499 115.655 300.584 115.655H314.542C315.627 115.655 316.507 114.776 316.507 113.691V104.317C316.507 103.232 315.627 102.352 314.542 102.352Z" fill="#A8BBDE"/>
<path d="M336.243 102.352H322.285C321.2 102.352 320.32 103.232 320.32 104.317V113.691C320.32 114.776 321.2 115.655 322.285 115.655H336.243C337.328 115.655 338.208 114.776 338.208 113.691V104.317C338.208 103.232 337.328 102.352 336.243 102.352Z" fill="#A8BBDE"/>
<path d="M314.542 119.469H300.584C299.499 119.469 298.619 120.348 298.619 121.433V130.807C298.619 131.892 299.499 132.772 300.584 132.772H314.542C315.627 132.772 316.507 131.892 316.507 130.807V121.433C316.507 120.348 315.627 119.469 314.542 119.469Z" fill="#A8BBDE"/>
<path d="M336.243 119.469H322.285C321.2 119.469 320.32 120.348 320.32 121.433V130.807C320.32 131.892 321.2 132.772 322.285 132.772H336.243C337.328 132.772 338.208 131.892 338.208 130.807V121.433C338.208 120.348 337.328 119.469 336.243 119.469Z" fill="#A8BBDE"/>
<path d="M314.542 136.585H300.584C299.499 136.585 298.619 137.465 298.619 138.55V147.924C298.619 149.009 299.499 149.888 300.584 149.888H314.542C315.627 149.888 316.507 149.009 316.507 147.924V138.55C316.507 137.465 315.627 136.585 314.542 136.585Z" fill="#A8BBDE"/>
<path d="M336.243 136.585H322.285C321.2 136.585 320.32 137.465 320.32 138.55V147.924C320.32 149.009 321.2 149.888 322.285 149.888H336.243C337.328 149.888 338.208 149.009 338.208 147.924V138.55C338.208 137.465 337.328 136.585 336.243 136.585Z" fill="#A8BBDE"/>
<path d="M314.542 153.702H300.584C299.499 153.702 298.619 154.582 298.619 155.667V165.041C298.619 166.126 299.499 167.005 300.584 167.005H314.542C315.627 167.005 316.507 166.126 316.507 165.041V155.667C316.507 154.582 315.627 153.702 314.542 153.702Z" fill="#A8BBDE"/>
<path d="M336.243 153.702H322.285C321.2 153.702 320.32 154.582 320.32 155.667V165.041C320.32 166.126 321.2 167.005 322.285 167.005H336.243C337.328 167.005 338.208 166.126 338.208 165.041V155.667C338.208 154.582 337.328 153.702 336.243 153.702Z" fill="#A8BBDE"/>
<path d="M310.348 91.5181C310.631 91.6821 310.631 92.0916 310.348 92.2551L306.49 94.4826C306.207 94.6461 305.852 94.4416 305.852 94.1136V89.6596C305.852 89.3321 306.207 89.1271 306.49 89.2911L310.348 91.5181Z" fill="#14248F"/>
<path d="M332.048 91.5181C332.332 91.6821 332.332 92.0916 332.048 92.2551L328.191 94.4826C327.907 94.6461 327.553 94.4416 327.553 94.1136V89.6596C327.553 89.3321 327.907 89.1271 328.191 89.2911L332.048 91.5181Z" fill="#14248F"/>
<path d="M310.348 108.634C310.631 108.798 310.631 109.207 310.348 109.371L306.49 111.598C306.207 111.762 305.852 111.557 305.852 111.23V106.776C305.852 106.448 306.207 106.243 306.49 106.407L310.348 108.634Z" fill="#14248F"/>
<path d="M332.048 108.634C332.332 108.798 332.332 109.207 332.048 109.371L328.191 111.598C327.907 111.762 327.553 111.557 327.553 111.23V106.776C327.553 106.448 327.907 106.243 328.191 106.407L332.048 108.634Z" fill="#14248F"/>
<path d="M310.348 125.751C310.631 125.915 310.631 126.325 310.348 126.489L306.49 128.716C306.207 128.879 305.852 128.675 305.852 128.347V123.893C305.852 123.565 306.207 123.361 306.49 123.524L310.348 125.751Z" fill="#14248F"/>
<path d="M332.048 125.751C332.332 125.915 332.332 126.325 332.048 126.489L328.191 128.716C327.907 128.879 327.553 128.675 327.553 128.347V123.893C327.553 123.565 327.907 123.361 328.191 123.524L332.048 125.751Z" fill="#14248F"/>
<path d="M310.348 142.869C310.631 143.033 310.631 143.442 310.348 143.606L306.49 145.833C306.207 145.996 305.852 145.792 305.852 145.464V141.01C305.852 140.683 306.207 140.478 306.49 140.642L310.348 142.869Z" fill="#14248F"/>
<path d="M332.048 142.869C332.332 143.033 332.332 143.442 332.048 143.606L328.191 145.833C327.907 145.996 327.553 145.792 327.553 145.464V141.01C327.553 140.683 327.907 140.478 328.191 140.642L332.048 142.869Z" fill="#14248F"/>
<path d="M310.348 159.985C310.631 160.149 310.631 160.558 310.348 160.722L306.49 162.949C306.207 163.113 305.852 162.908 305.852 162.581V158.127C305.852 157.799 306.207 157.594 306.49 157.758L310.348 159.985Z" fill="#14248F"/>
<path d="M332.048 159.985C332.332 160.148 332.332 160.558 332.048 160.722L328.191 162.949C327.907 163.113 327.553 162.908 327.553 162.581V158.126C327.553 157.798 327.907 157.594 328.191 157.758L332.048 159.985Z" fill="#14248F"/>
<path d="M51.181 177.47C52.9735 182.458 54.9725 188.02 59.945 192.409C62.653 194.799 65.842 196.09 68.6135 197.212C68.8515 197.308 69.086 197.403 69.317 197.498C66.962 199 64.0645 199.904 60.523 199.904C48.3539 199.904 43.7271 187.982 42.8904 178.83C42.7393 177.177 44.0943 175.829 45.7541 175.829H50.587C50.785 176.367 50.982 176.915 51.181 177.47Z" fill="black" fill-opacity="0.2"/>
<g opacity="0.7">
<path opacity="0.7" d="M83.0442 78.7366C91.4824 76.3728 96.4066 67.616 94.0427 59.1778C91.6789 50.7396 82.9221 45.8153 74.4839 48.1792C66.0457 50.5431 61.1215 59.2999 63.4853 67.7381C65.8492 76.1763 74.606 81.1005 83.0442 78.7366Z" fill="#FDD17B"/>
<path opacity="0.7" fill-rule="evenodd" clip-rule="evenodd" d="M71.4287 68.4491C71.4287 68.4491 75.6137 74.2551 81.3397 72.6511C87.6117 70.8941 87.6252 63.9121 87.6252 63.9121C87.6252 63.9121 84.1847 68.9226 80.5782 69.9326C76.9712 70.9431 71.4287 68.4491 71.4287 68.4491Z" fill="black"/>
<path opacity="0.7" d="M73.4663 63.0811C74.3486 62.834 74.8635 61.9184 74.6163 61.0361C74.3691 60.1539 73.4536 59.639 72.5713 59.8862C71.689 60.1333 71.1742 61.0489 71.4213 61.9312C71.6685 62.8134 72.5841 63.3283 73.4663 63.0811Z" fill="black"/>
<path opacity="0.7" d="M83.0942 60.3839C83.9764 60.1367 84.4913 59.2211 84.2441 58.3389C83.997 57.4566 83.0814 56.9417 82.1991 57.1889C81.3169 57.4361 80.802 58.3516 81.0492 59.2339C81.2963 60.1162 82.2119 60.631 83.0942 60.3839Z" fill="black"/>
</g>
<g opacity="0.7">
<path opacity="0.7" d="M39.9361 32.6329C42.8575 33.6161 46.0227 32.0449 47.0059 29.1236C47.9891 26.2022 46.4179 23.037 43.4966 22.0538C40.5752 21.0706 37.41 22.6417 36.4268 25.5631C35.4436 28.4844 37.0148 31.6497 39.9361 32.6329Z" fill="#FDD17B"/>
<path opacity="0.7" fill-rule="evenodd" clip-rule="evenodd" d="M38.5957 27.3428C38.5957 27.3428 38.6631 29.8593 40.6454 30.5265C42.8168 31.2573 44.2029 29.2299 44.2029 29.2299C44.2029 29.2299 42.2108 30.0056 40.9621 29.5853C39.7134 29.1651 38.5957 27.3428 38.5957 27.3428Z" fill="black"/>
<path opacity="0.7" d="M40.2511 26.1846C40.5565 26.2874 40.8875 26.1231 40.9903 25.8177C41.0931 25.5122 40.9288 25.1813 40.6234 25.0785C40.3179 24.9757 39.987 25.14 39.8842 25.4454C39.7814 25.7509 39.9457 26.0818 40.2511 26.1846Z" fill="black"/>
<path opacity="0.7" d="M43.5841 27.3067C43.8896 27.4095 44.2205 27.2452 44.3233 26.9398C44.4261 26.6343 44.2618 26.3034 43.9564 26.2006C43.6509 26.0978 43.32 26.262 43.2172 26.5675C43.1144 26.8729 43.2787 27.2039 43.5841 27.3067Z" fill="black"/>
</g>
<g opacity="0.6">
<path opacity="0.6" d="M152.994 31.4942C158.472 31.9661 163.296 27.9072 163.768 22.4284C164.24 16.9495 160.181 12.1255 154.703 11.6535C149.224 11.1816 144.4 15.2405 143.928 20.7193C143.456 26.1982 147.515 31.0222 152.994 31.4942Z" fill="#FDD17B"/>
<path opacity="0.6" fill-rule="evenodd" clip-rule="evenodd" d="M148.438 22.8887C148.438 22.8887 149.616 27.2227 153.333 27.5429C157.406 27.8937 158.953 23.7945 158.953 23.7945C158.953 23.7945 155.827 25.9795 153.485 25.7778C151.144 25.5761 148.438 22.8887 148.438 22.8887Z" fill="black"/>
<path opacity="0.6" d="M150.819 20.1838C151.392 20.2331 151.897 19.8088 151.946 19.2359C151.995 18.6631 151.571 18.1587 150.998 18.1094C150.425 18.06 149.921 18.4844 149.872 19.0572C149.822 19.6301 150.247 20.1345 150.819 20.1838Z" fill="black"/>
<path opacity="0.6" d="M157.07 20.7229C157.643 20.7722 158.148 20.3478 158.197 19.775C158.246 19.2022 157.822 18.6978 157.249 18.6484C156.676 18.5991 156.172 19.0235 156.123 19.5963C156.073 20.1692 156.498 20.6735 157.07 20.7229Z" fill="black"/>
</g>
<g opacity="0.5">
<path opacity="0.5" d="M20.7631 105.961C24.8625 104.948 27.3641 100.803 26.3505 96.7033C25.3369 92.6038 21.1919 90.1023 17.0925 91.1159C12.9931 92.1295 10.4915 96.2744 11.5051 100.374C12.5187 104.473 16.6636 106.975 20.7631 105.961Z" fill="#FDD17B"/>
<path opacity="0.5" fill-rule="evenodd" clip-rule="evenodd" d="M15.3203 100.834C15.3203 100.834 17.2501 103.693 20.0318 103.005C23.0788 102.252 23.1887 98.8887 23.1887 98.8887C23.1887 98.8887 21.4575 101.251 19.7052 101.684C17.953 102.118 15.3203 100.834 15.3203 100.834Z" fill="black"/>
<path opacity="0.5" d="M16.3814 98.2778C16.8101 98.1719 17.0716 97.7385 16.9656 97.3099C16.8597 96.8813 16.4263 96.6197 15.9977 96.7257C15.569 96.8317 15.3075 97.265 15.4135 97.6937C15.5194 98.1223 15.9528 98.3838 16.3814 98.2778Z" fill="black"/>
<path opacity="0.5" d="M21.0594 97.1216C21.488 97.0156 21.7495 96.5822 21.6436 96.1536C21.5376 95.725 21.1042 95.4635 20.6756 95.5694C20.247 95.6754 19.9854 96.1088 20.0914 96.5374C20.1974 96.966 20.6308 97.2276 21.0594 97.1216Z" fill="black"/>
</g>
<path d="M197.101 61.9726C201.085 63.3722 205.449 61.277 206.849 57.2928C208.248 53.3087 206.153 48.9442 202.169 47.5446C198.185 46.145 193.82 48.2402 192.421 52.2244C191.021 56.2085 193.116 60.573 197.101 61.9726Z" fill="#FDD17B"/>
<path fill-rule="evenodd" clip-rule="evenodd" d="M195.359 54.7012C195.359 54.7012 195.406 58.1497 198.109 59.0997C201.071 60.1402 203.006 57.3877 203.006 57.3877C203.006 57.3877 200.263 58.4142 198.56 57.8162C196.857 57.2177 195.359 54.7012 195.359 54.7012Z" fill="black"/>
<path d="M197.647 53.1458C198.064 53.2921 198.52 53.073 198.666 52.6565C198.813 52.2399 198.594 51.7836 198.177 51.6372C197.761 51.4909 197.304 51.71 197.158 52.1265C197.012 52.5431 197.231 52.9994 197.647 53.1458Z" fill="black"/>
<path d="M202.193 54.7424C202.61 54.8888 203.066 54.6697 203.212 54.2531C203.359 53.8366 203.14 53.3802 202.723 53.2339C202.306 53.0876 201.85 53.3066 201.704 53.7232C201.557 54.1398 201.777 54.5961 202.193 54.7424Z" fill="black"/>
<path d="M266.131 28.8533C270.345 28.5756 273.536 24.9346 273.258 20.7208C272.981 16.5071 269.339 13.3163 265.126 13.594C260.912 13.8717 257.721 17.5128 257.999 21.7265C258.277 25.9403 261.918 29.131 266.131 28.8533Z" fill="#FDD17B"/>
<path fill-rule="evenodd" clip-rule="evenodd" d="M261.675 22.8504C261.675 22.8504 263.072 26.0036 265.931 25.8151C269.063 25.6087 269.762 22.3174 269.762 22.3174C269.762 22.3174 267.643 24.3389 265.842 24.4576C264.041 24.5763 261.675 22.8504 261.675 22.8504Z" fill="black"/>
<path d="M263.168 20.52C263.609 20.491 263.943 20.1103 263.914 19.6697C263.885 19.2291 263.504 18.8955 263.063 18.9246C262.623 18.9536 262.289 19.3343 262.318 19.7749C262.347 20.2154 262.728 20.5491 263.168 20.52Z" fill="black"/>
<path d="M267.976 20.2036C268.417 20.1746 268.75 19.7939 268.721 19.3533C268.692 18.9127 268.312 18.5791 267.871 18.6082C267.43 18.6372 267.097 19.0179 267.126 19.4585C267.155 19.899 267.536 20.2327 267.976 20.2036Z" fill="black"/>
<path d="M192.776 126.061C196.784 127.389 201.111 125.217 202.439 121.208C203.768 117.2 201.595 112.873 197.587 111.545C193.579 110.216 189.252 112.389 187.923 116.397C186.595 120.406 188.767 124.732 192.776 126.061Z" fill="#FDD17B"/>
<path fill-rule="evenodd" clip-rule="evenodd" d="M190.905 118.82C190.905 118.82 191.013 122.267 193.733 123.169C196.713 124.156 198.599 121.37 198.599 121.37C198.599 121.37 195.874 122.445 194.161 121.877C192.448 121.309 190.905 118.82 190.905 118.82Z" fill="black"/>
<path d="M193.166 117.225C193.585 117.364 194.037 117.137 194.176 116.717C194.315 116.298 194.088 115.846 193.669 115.707C193.25 115.568 192.798 115.795 192.659 116.214C192.52 116.634 192.747 117.086 193.166 117.225Z" fill="black"/>
<path d="M197.739 118.741C198.158 118.88 198.611 118.653 198.75 118.234C198.888 117.814 198.661 117.362 198.242 117.223C197.823 117.084 197.371 117.311 197.232 117.731C197.093 118.15 197.32 118.602 197.739 118.741Z" fill="black"/>
<path d="M169.679 83.3359C170.22 87.0694 170.069 93.5624 169.41 100.44C170.151 102.116 170.862 103.837 171.078 104.701C171.341 105.752 169.932 107.578 168.38 108.778C167.116 117.072 165.208 124.519 162.992 126.815C157.034 132.985 144.95 124.04 137.503 114.677C131.545 107.187 132.474 103.154 134.531 92.7974L169.679 83.3359Z" fill="#FDD17B"/>
<path d="M128.305 125.376C130.445 114.233 155.259 116.734 156.107 128.049C157.453 145.986 165.524 152.264 165.524 152.264H111.938C111.938 152.264 124.097 147.282 128.305 125.376Z" fill="#FDD17B"/>
<path d="M226.1 214.613C226.1 262.413 175.294 290.068 137.65 290.068C100.006 290.068 62.4277 276.355 62.4277 228.554C62.4277 180.754 103.48 143.688 141.124 143.688C178.768 143.688 213.39 167.584 226.1 214.613Z" fill="#14248F"/>
<path d="M241.738 244.887C243.684 231.271 215.395 178.304 195.619 164.039L200.956 181.194C203.692 208.675 214.834 256.476 221.101 263.042C228.935 271.249 240.095 256.389 241.738 244.887Z" fill="#14248F"/>
<path fill-rule="evenodd" clip-rule="evenodd" d="M218.872 279.007C210.497 272.773 188.36 245.794 177.338 237.026C148.731 214.271 116.511 188.643 108.204 189.521C101.01 190.282 92.0757 190.351 80.8262 189.521C77.3587 189.265 74.8632 188.575 73.1807 187.54C87.8562 161.141 115.292 143.688 141.124 143.688C150.263 143.688 159.223 145.096 167.735 147.901C156.069 151.842 138.184 164.787 129.252 178.057C195.567 175.992 220.453 182.418 223.005 220.735C225.289 255.026 229.947 267.33 218.872 279.007Z" fill="black" fill-opacity="0.5"/>
<path fill-rule="evenodd" clip-rule="evenodd" d="M132.167 120.146C131.438 120.579 130.784 121.085 130.227 121.667C131.61 123.564 130.352 124.22 128.39 124.988C128.358 125.115 128.33 125.243 128.305 125.374C127.332 130.439 125.934 134.6 124.36 138.003C123.819 139.172 123.257 140.251 122.685 141.247C124.575 141.478 126.65 141.756 127.087 141.912C127.928 142.213 149.007 142.788 159.444 143.039C158.736 141.327 158.068 139.346 157.508 137.072C153.676 137.293 146.589 137.008 139.846 136.619C145.462 134.593 151.062 131.408 154.558 128.002C155.078 128.321 155.617 128.539 156.159 128.684L156.157 128.662C157.946 129.006 159.615 128.897 161.068 128.209C158.436 126.779 149.838 122.997 148.447 122.629C148.216 122.791 144.642 122.185 140.598 121.5C137.671 121.003 134.498 120.465 132.167 120.146Z" fill="black" fill-opacity="0.12"/>
<path d="M118.379 138.045H161.899C164.007 140.164 167.082 145.766 166.679 147.321C166.011 149.897 116.412 159.691 111.335 151.424C108.943 147.528 115.628 138.045 118.379 138.045Z" fill="#14248F"/>
<path d="M124.147 93.7757C124.843 94.4722 142.43 101.611 147.306 101.089C152.181 100.566 165.565 106.032 165.565 106.032C165.565 106.032 168.643 97.8747 168.295 92.1282C167.946 86.3822 175.282 79.6892 181.203 71.3312C185.939 64.6447 156.824 52.8692 139.88 55.9422C116.038 60.2662 105.13 74.7592 124.147 93.7757Z" fill="#14248F"/>
<path d="M160.48 96.6779C160.558 95.3869 161.669 94.4034 162.96 94.4819C164.251 94.5604 165.234 95.6709 165.156 96.9624L164.365 109.974C164.287 111.265 163.176 112.248 161.885 112.17C160.594 112.091 159.61 110.981 159.689 109.69L160.48 96.6779Z" fill="#FDD17B"/>
<path d="M161.471 100.625C161.601 97.8267 163.84 93.2107 160.681 95.5602L154.638 125.274C156.699 123.512 160.658 119.303 160.007 116.57C159.193 113.153 161.309 104.123 161.471 100.625Z" fill="#020202" fill-opacity="0.39"/>
<path d="M161.291 88.9452C161.291 93.0472 160.647 95.9057 160.077 103.736C159.848 106.873 158.51 110.061 158.951 115.595C159.441 121.729 157.929 122.608 154.06 127.211C148.075 134.332 130.496 133.034 127.93 129.01C121.049 118.219 109.505 108.562 109.505 93.5252C109.505 78.4892 123.66 67.4277 135.848 67.4277C148.036 67.4277 161.291 73.9092 161.291 88.9452Z" fill="#14248F"/>
<path d="M155.223 68.5676C158.709 64.3851 159.963 60.4656 159.182 57.0816C152.532 55.5436 145.53 54.9176 139.88 55.9421C123.066 58.9916 112.684 67.0991 114.696 78.2841C114.777 78.2736 114.859 78.2626 114.942 78.2511C111.63 82.4711 109.505 87.7001 109.505 93.5256C109.505 104.64 115.812 112.815 121.881 120.682C124.023 123.458 126.135 126.195 127.93 129.01C130.496 133.034 148.075 134.332 154.06 127.211C154.507 126.68 154.922 126.199 155.306 125.753V125.752C155.808 125.17 156.257 124.649 156.655 124.159C151.8 122.348 145.835 119.836 141.85 115.187C137.968 110.658 138.474 102.446 140.309 94.7741C142.042 87.5266 143.73 80.4666 140.471 76.5961C140.394 76.5056 140.316 76.4171 140.235 76.3316C145.01 76.7891 150.626 74.0841 155.223 68.5676Z" fill="black" fill-opacity="0.24"/>
<path d="M65.244 224.672C63.72 201.594 82.0285 182.036 105.157 182.036H182.466C203.477 182.036 220.906 198.292 222.369 219.251L228.029 300.352H70.241L65.244 224.672Z" fill="#4BB9AE"/>
<path d="M51.7777 229.512C47.0891 204.865 65.9843 182.036 91.0728 182.036H164.918C185.615 182.036 202.893 197.824 204.756 218.436L212.217 301H65.3772L51.7777 229.512Z" fill="#5FEDDF"/>
<path d="M102.37 235.852C102.817 242.243 103.238 248.256 103.359 253.431C103.843 274 118.588 288.8 141.572 301H65.3772L51.7777 229.512C47.0893 204.865 65.9847 182.036 91.0732 182.036H104.425C99.5607 195.712 101.076 217.363 102.37 235.852Z" fill="black" fill-opacity="0.1"/>
<path d="M353.655 200.547C353.717 200.848 347.599 200.848 339.902 200.848C332.204 200.848 330.752 200.867 330.752 200.29C330.752 199.714 332.204 199.246 339.902 199.246C347.599 199.246 353.454 199.563 353.655 200.547Z" fill="black" fill-opacity="0.37"/>
<path fill-rule="evenodd" clip-rule="evenodd" d="M335.905 200.433C334.952 200.423 334.114 199.739 334.071 198.787C333.858 194.105 336.946 191.44 341.49 191.44C347.569 191.44 353.839 195.004 353.839 199.494C353.839 200.152 353.253 200.62 352.594 200.613L335.905 200.433Z" fill="#A8BBDE"/>
</g>
<defs>
<clipPath id="clip0">
<rect width="400" height="300" fill="white"/>
</clipPath>
</defs>
</svg>
