<?xml version="1.0" standalone="no"?>
<!DOCTYPE svg PUBLIC "-//W3C//DTD SVG 20010904//EN"
 "http://www.w3.org/TR/2001/REC-SVG-20010904/DTD/svg10.dtd">
<svg version="1.0" xmlns="http://www.w3.org/2000/svg"
 width="740.000000pt" height="740.000000pt" viewBox="0 0 740.000000 740.000000"
 preserveAspectRatio="xMidYMid meet">
<metadata>
Created by potrace 1.16, written by Peter Selinger 2001-2019
</metadata>
<g transform="translate(0.000000,740.000000) scale(0.100000,-0.100000)"
fill="#000000" stroke="none">
<path d="M5465 6612 l-90 -34 -671 -1186 c-666 -1176 -672 -1187 -645 -1194
14 -3 52 -8 84 -10 55 -5 58 -4 76 26 10 17 128 229 261 471 133 242 275 499
315 570 261 469 766 1387 763 1389 -2 1 -43 -13 -93 -32z"/>
<path d="M4675 4423 l-71 -35 -12 -145 c-18 -205 -78 -555 -98 -572 -5 -4 -53
-27 -107 -51 l-98 -43 68 -24 c39 -14 81 -22 98 -20 17 3 104 39 195 80 284
129 644 289 673 299 26 10 27 13 27 78 l0 68 -277 -125 c-153 -69 -307 -138
-342 -154 -35 -16 -65 -28 -66 -27 -2 2 6 46 16 98 39 198 88 611 72 609 -4 0
-40 -16 -78 -36z"/>
<path d="M6060 4401 c-7 -32 -9 -64 -6 -70 4 -6 76 -64 160 -129 l154 -119 78
13 c44 7 80 13 82 13 6 1 -430 342 -443 347 -8 3 -16 -15 -25 -55z"/>
<path d="M4210 3542 c-31 -15 -120 -56 -198 -91 l-142 -63 0 -59 c0 -32 2 -59
4 -59 2 0 60 25 127 55 67 30 124 55 126 55 4 0 -60 -103 -165 -265 -47 -71
-85 -136 -85 -144 0 -11 -69 -12 -409 -7 l-408 6 0 -63 0 -62 572 3 c543 2
681 6 466 14 -53 1 -94 6 -92 10 3 5 12 8 20 8 21 0 17 17 -6 23 -11 3 -20 13
-19 24 0 10 3 13 6 6 7 -18 33 -16 33 2 0 8 -8 15 -19 15 -10 0 -30 6 -44 13
l-26 13 154 232 153 232 4 65 c1 36 3 65 3 64 0 0 -25 -13 -55 -27z"/>
<path d="M5640 3265 c6 -32 -1 -47 -20 -42 -16 4 -18 2 -10 -13 14 -26 13 -30
-7 -23 -16 6 -16 5 -4 -10 12 -15 11 -17 -13 -15 -14 1 -26 8 -26 15 0 7 -7
13 -15 13 -8 0 -15 -7 -15 -15 0 -8 -4 -15 -9 -15 -5 0 -8 8 -6 18 1 9 0 11
-2 5 -3 -7 -12 -13 -21 -13 -14 0 -14 -2 -3 -9 8 -5 -5 -7 -35 -3 -27 2 -50 9
-52 13 -8 21 -33 7 -38 -21 -6 -27 -10 -30 -45 -30 -32 0 -39 -3 -39 -20 0
-13 -7 -20 -20 -20 -16 0 -20 7 -20 35 0 46 -26 47 -36 3 -4 -18 -9 -27 -11
-20 -3 6 -9 12 -14 12 -4 0 -6 -7 -2 -16 5 -14 1 -16 -21 -12 -15 3 -25 3 -22
1 10 -11 -37 -45 -56 -40 -11 3 -40 -6 -69 -24 -28 -16 -54 -29 -59 -29 -5 0
-12 -5 -16 -12 -5 -8 -2 -9 10 -5 10 4 15 3 11 -4 -4 -5 -15 -7 -26 -4 -12 4
-39 -5 -72 -23 -54 -31 -189 -102 -314 -167 -41 -21 -70 -42 -66 -48 3 -6 1
-7 -5 -3 -6 4 -38 -7 -71 -23 -56 -29 -63 -36 -107 -118 -148 -277 -299 -497
-476 -694 l-68 -77 35 -26 c34 -26 35 -29 35 -97 l0 -69 -138 0 -139 0 -61
-49 c-34 -27 -109 -81 -167 -120 -58 -39 -103 -71 -98 -71 4 0 99 -16 210 -37
l202 -36 93 38 c723 297 1335 843 1757 1567 36 62 60 112 55 119 -4 7 -3 9 3
6 6 -4 35 42 68 104 44 85 54 114 45 122 -6 7 -11 8 -10 2z"/>
<path d="M4240 2620 c-29 -15 -64 -64 -190 -267 -85 -136 -161 -249 -167 -249
-7 -1 -26 -2 -41 -3 -24 -1 -42 -18 -106 -100 -43 -55 -78 -103 -78 -108 0 -4
16 -21 36 -37 l35 -29 47 52 c92 102 188 228 279 366 88 134 231 382 224 390
-2 2 -20 -5 -39 -15z"/>
<path d="M2555 2266 l-500 -51 0 -60 c0 -58 1 -60 25 -58 14 2 72 7 130 13 58
5 151 14 208 20 56 5 148 15 205 20 56 6 145 15 197 20 52 5 133 12 180 16
l85 5 113 -81 c63 -46 119 -79 127 -76 7 2 18 14 24 25 9 16 6 24 -20 45 -27
23 -30 39 -3 19 5 -5 1 0 -9 9 -11 10 -23 15 -28 12 -5 -3 -8 -1 -7 5 3 12
-201 172 -217 170 -5 -1 -235 -25 -510 -53z"/>
<path d="M3320 1569 c-47 -39 -116 -91 -154 -117 l-68 -47 41 -9 c36 -8 46 -5
96 25 31 19 104 70 163 113 98 73 105 80 82 86 -78 21 -71 23 -160 -51z"/>
<path d="M1775 1555 c-143 -18 -329 -41 -412 -51 l-153 -18 0 -59 0 -59 33 5
c17 3 208 27 422 53 l390 47 -3 59 c-2 32 -7 58 -10 57 -4 -1 -124 -16 -267
-34z"/>
<path d="M2778 1185 c-20 -20 -303 -88 -478 -114 -126 -19 298 -1 454 19 183
23 379 61 369 70 -15 14 -333 37 -345 25z"/>
<path d="M833 903 l-291 -3 -4 -60 -3 -60 298 0 297 0 0 65 c0 36 -1 64 -2 63
-2 -2 -134 -4 -295 -5z"/>
</g>
</svg>
